<svg width="25" height="24" viewBox="0 0 25 24" fill="none" xmlns="http://www.w3.org/2000/svg">
<path d="M17.9666 19.817L15.7946 20.955C15.7302 20.9885 15.6577 21.0035 15.5852 20.9982C15.5127 20.9929 15.4431 20.9676 15.3842 20.9251C15.3253 20.8826 15.2794 20.8245 15.2515 20.7574C15.2237 20.6903 15.2151 20.6167 15.2266 20.545L15.6416 18.134L13.8846 16.427C13.8322 16.3763 13.795 16.3119 13.7775 16.2411C13.7599 16.1703 13.7626 16.096 13.7852 16.0266C13.8078 15.9573 13.8495 15.8957 13.9054 15.8489C13.9614 15.8021 14.0294 15.772 14.1016 15.762L16.5296 15.41L17.6156 13.217C17.6481 13.1517 17.6982 13.0967 17.7602 13.0583C17.8222 13.0199 17.8937 12.9995 17.9666 12.9995C18.0396 12.9995 18.1111 13.0199 18.1731 13.0583C18.2351 13.0967 18.2851 13.1517 18.3176 13.217L19.4036 15.41L21.8316 15.762C21.9037 15.7723 21.9714 15.8027 22.0271 15.8495C22.0828 15.8963 22.1243 15.9578 22.1468 16.027C22.1694 16.0962 22.1722 16.1703 22.1548 16.241C22.1375 16.3117 22.1007 16.3761 22.0486 16.427L20.2916 18.134L20.7056 20.544C20.718 20.6158 20.7101 20.6898 20.6826 20.7573C20.6551 20.8249 20.6093 20.8834 20.5502 20.9262C20.4912 20.969 20.4213 20.9944 20.3485 20.9995C20.2758 21.0046 20.2031 20.9891 20.1386 20.955L17.9666 19.817Z" stroke="#9DB2CE" stroke-width="1.5" stroke-linecap="round" stroke-linejoin="round"/>
<path d="M6.36664 19.817L4.19464 20.955C4.13019 20.9885 4.05768 21.0035 3.9852 20.9982C3.91273 20.9929 3.84315 20.9676 3.78423 20.9251C3.72532 20.8826 3.67938 20.8245 3.65155 20.7574C3.62372 20.6903 3.6151 20.6167 3.62664 20.545L4.04164 18.134L2.28464 16.427C2.2322 16.3763 2.19507 16.3119 2.17749 16.2411C2.1599 16.1703 2.16258 16.096 2.18521 16.0266C2.20783 15.9573 2.2495 15.8957 2.30546 15.8489C2.36141 15.8021 2.42939 15.772 2.50164 15.762L4.92964 15.41L6.01564 13.217C6.04812 13.1517 6.09818 13.0967 6.16019 13.0583C6.2222 13.0199 6.2937 12.9995 6.36664 12.9995C6.43959 12.9995 6.51109 13.0199 6.5731 13.0583C6.63511 13.0967 6.68517 13.1517 6.71764 13.217L7.80364 15.41L10.2316 15.762C10.3037 15.7723 10.3714 15.8027 10.4271 15.8495C10.4828 15.8963 10.5243 15.9578 10.5469 16.027C10.5695 16.0962 10.5722 16.1703 10.5549 16.241C10.5375 16.3117 10.5007 16.3761 10.4486 16.427L8.69164 18.134L9.10564 20.544C9.11807 20.6158 9.11009 20.6898 9.08262 20.7573C9.05515 20.8249 9.00929 20.8834 8.95024 20.9262C8.89118 20.969 8.82131 20.9944 8.74856 20.9995C8.6758 21.0046 8.60308 20.9891 8.53864 20.955L6.36664 19.817Z" stroke="#9DB2CE" stroke-width="1.5" stroke-linecap="round" stroke-linejoin="round"/>
<path d="M12.1666 9.81698L9.99463 10.955C9.93018 10.9885 9.85766 11.0035 9.78519 10.9982C9.71272 10.9929 9.64314 10.9676 9.58422 10.9251C9.5253 10.8826 9.47937 10.8245 9.45154 10.7574C9.42371 10.6903 9.41509 10.6167 9.42663 10.545L9.84163 8.13398L8.08463 6.42698C8.03219 6.37628 7.99506 6.31186 7.97747 6.24107C7.95989 6.17027 7.96257 6.09597 7.98519 6.02662C8.00782 5.95728 8.04949 5.89569 8.10544 5.8489C8.1614 5.8021 8.22938 5.77198 8.30163 5.76198L10.7296 5.40998L11.8156 3.21698C11.8481 3.15166 11.8982 3.0967 11.9602 3.05828C12.0222 3.01987 12.0937 2.99951 12.1666 2.99951C12.2396 2.99951 12.3111 3.01987 12.3731 3.05828C12.4351 3.0967 12.4852 3.15166 12.5176 3.21698L13.6036 5.40998L16.0316 5.76198C16.1037 5.77234 16.1714 5.80265 16.2271 5.84949C16.2828 5.89633 16.3243 5.95783 16.3469 6.02702C16.3694 6.09621 16.3722 6.17034 16.3548 6.24102C16.3375 6.3117 16.3007 6.37612 16.2486 6.42698L14.4916 8.13398L14.9056 10.544C14.9181 10.6158 14.9101 10.6898 14.8826 10.7573C14.8551 10.8249 14.8093 10.8834 14.7502 10.9262C14.6912 10.969 14.6213 10.9944 14.5485 10.9995C14.4758 11.0046 14.4031 10.9891 14.3386 10.955L12.1666 9.81698Z" stroke="#9DB2CE" stroke-width="1.5" stroke-linecap="round" stroke-linejoin="round"/>
</svg>
