<svg width="17" height="16" viewBox="0 0 17 16" fill="none" xmlns="http://www.w3.org/2000/svg">
<path d="M14.6913 7.16667L8.24832 0.5L1 8H2.61074V13.8333C2.61074 14.2754 2.78044 14.6993 3.08251 15.0118C3.38458 15.3244 3.79428 15.5 4.22148 15.5H8.24832M5.83221 15.5V10.5C5.83221 10.058 6.00192 9.63405 6.30399 9.32149C6.60606 9.00893 7.01576 8.83333 7.44295 8.83333H8.65101M12.0596 8.81552C12.2168 8.14483 13.1389 8.14483 13.2961 8.81552C13.3197 8.91628 13.366 9.00985 13.4311 9.08861C13.4963 9.16738 13.5785 9.22911 13.671 9.26879C13.7636 9.30847 13.8639 9.32498 13.9638 9.31696C14.0637 9.30895 14.1604 9.27664 14.2459 9.22267C14.8155 8.86365 15.4677 9.53816 15.1207 10.1279C15.0687 10.2164 15.0375 10.3163 15.0298 10.4196C15.022 10.5229 15.038 10.6266 15.0763 10.7223C15.1146 10.8181 15.1742 10.9031 15.2502 10.9705C15.3262 11.0379 15.4166 11.0858 15.5139 11.1102C16.162 11.273 16.162 12.227 15.5139 12.3898C15.4165 12.4142 15.3261 12.462 15.2499 12.5294C15.1738 12.5968 15.1141 12.6819 15.0758 12.7777C15.0374 12.8735 15.0215 12.9773 15.0292 13.0806C15.037 13.184 15.0682 13.284 15.1204 13.3725C15.4673 13.9618 14.8155 14.6367 14.2455 14.2777C14.16 14.2238 14.0634 14.1916 13.9636 14.1836C13.8638 14.1756 13.7635 14.1921 13.671 14.2317C13.5785 14.2713 13.4964 14.333 13.4312 14.4117C13.3661 14.4903 13.3198 14.5838 13.2961 14.6845C13.1389 15.3552 12.2168 15.3552 12.0596 14.6845C12.036 14.5837 11.9897 14.4902 11.9246 14.4114C11.8594 14.3326 11.7772 14.2709 11.6847 14.2312C11.5921 14.1915 11.4918 14.175 11.3919 14.183C11.292 14.191 11.1953 14.2234 11.1098 14.2773C10.5402 14.6364 9.88799 13.9618 10.235 13.3721C10.2871 13.2836 10.3182 13.1837 10.326 13.0804C10.3337 12.9771 10.3177 12.8734 10.2794 12.7777C10.2411 12.6819 10.1815 12.5969 10.1055 12.5295C10.0295 12.4621 9.93913 12.4142 9.84185 12.3898C9.19366 12.227 9.19366 11.273 9.84185 11.1102C9.93922 11.0858 10.0297 11.038 10.1058 10.9706C10.1819 10.9032 10.2416 10.8181 10.2799 10.7223C10.3183 10.6265 10.3342 10.5227 10.3265 10.4194C10.3187 10.316 10.2875 10.216 10.2353 10.1275C9.88836 9.53816 10.5402 8.86326 11.1102 9.22229C11.4793 9.45451 11.9577 9.24903 12.0596 8.81552ZM11.5705 11.75C11.5705 12.0539 11.6871 12.3453 11.8948 12.5602C12.1025 12.7751 12.3842 12.8958 12.6779 12.8958C12.9715 12.8958 13.2532 12.7751 13.4609 12.5602C13.6686 12.3453 13.7852 12.0539 13.7852 11.75C13.7852 11.4461 13.6686 11.1547 13.4609 10.9398C13.2532 10.7249 12.9715 10.6042 12.6779 10.6042C12.3842 10.6042 12.1025 10.7249 11.8948 10.9398C11.6871 11.1547 11.5705 11.4461 11.5705 11.75Z" stroke="#2EA3F2" stroke-linecap="round" stroke-linejoin="round"/>
</svg>
