<svg width="25" height="24" viewBox="0 0 25 24" fill="none" xmlns="http://www.w3.org/2000/svg">
<path d="M14.8333 4H20.8333V10H14.8333V4Z" stroke="#9DB2CE" stroke-width="2" stroke-linecap="round" stroke-linejoin="round"/>
<path d="M4.83325 14H10.8333V20H4.83325V14Z" stroke="#9DB2CE" stroke-width="2" stroke-linecap="round" stroke-linejoin="round"/>
<path d="M14.8333 17C14.8333 17.7956 15.1493 18.5587 15.7119 19.1213C16.2745 19.6839 17.0376 20 17.8333 20C18.6289 20 19.392 19.6839 19.9546 19.1213C20.5172 18.5587 20.8333 17.7956 20.8333 17C20.8333 16.2044 20.5172 15.4413 19.9546 14.8787C19.392 14.3161 18.6289 14 17.8333 14C17.0376 14 16.2745 14.3161 15.7119 14.8787C15.1493 15.4413 14.8333 16.2044 14.8333 17Z" stroke="#9DB2CE" stroke-width="2" stroke-linecap="round" stroke-linejoin="round"/>
<path d="M4.83325 7C4.83325 7.39397 4.91085 7.78407 5.06161 8.14805C5.21238 8.51203 5.43336 8.84274 5.71193 9.12132C5.99051 9.3999 6.32122 9.62087 6.6852 9.77164C7.04918 9.9224 7.43929 10 7.83325 10C8.22722 10 8.61733 9.9224 8.9813 9.77164C9.34528 9.62087 9.676 9.3999 9.95457 9.12132C10.2331 8.84274 10.4541 8.51203 10.6049 8.14805C10.7557 7.78407 10.8333 7.39397 10.8333 7C10.8333 6.60603 10.7557 6.21593 10.6049 5.85195C10.4541 5.48797 10.2331 5.15726 9.95457 4.87868C9.676 4.6001 9.34528 4.37913 8.9813 4.22836C8.61733 4.0776 8.22722 4 7.83325 4C7.43929 4 7.04918 4.0776 6.6852 4.22836C6.32122 4.37913 5.99051 4.6001 5.71193 4.87868C5.43336 5.15726 5.21238 5.48797 5.06161 5.85195C4.91085 6.21593 4.83325 6.60603 4.83325 7Z" stroke="#9DB2CE" stroke-width="2" stroke-linecap="round" stroke-linejoin="round"/>
</svg>
