<svg width="210" height="210" viewBox="0 0 210 210" fill="none" xmlns="http://www.w3.org/2000/svg">
<path d="M210 160.608H0V160.713H210V160.608Z" fill="#E6E0E9"/>
<path d="M188.958 167.366H175.047V167.471H188.958V167.366Z" fill="#E6E0E9"/>
<path d="M139.112 168.508H135.462V168.613H139.112V168.508Z" fill="#E6E0E9"/>
<path d="M174.628 163.468H166.568V163.573H174.628V163.468Z" fill="#E6E0E9"/>
<path d="M40.173 164.174H22.0332V164.279H40.173V164.174Z" fill="#E6E0E9"/>
<path d="M46.5736 164.174H43.915V164.279H46.5736V164.174Z" fill="#E6E0E9"/>
<path d="M94.5629 165.946H55.2173V166.051H94.5629V165.946Z" fill="#E6E0E9"/>
<path d="M99.5401 141.876H18.4423C17.807 141.875 17.1981 141.622 16.7493 141.172C16.3004 140.723 16.0483 140.113 16.0483 139.478V25.4773C16.0539 24.8456 16.3084 24.2416 16.7566 23.7965C17.2049 23.3515 17.8106 23.1012 18.4423 23.1001H99.5401C100.176 23.1001 100.786 23.3528 101.236 23.8025C101.686 24.2523 101.938 24.8623 101.938 25.4983V139.478C101.938 140.114 101.686 140.724 101.236 141.174C100.786 141.623 100.176 141.876 99.5401 141.876ZM18.4423 23.1841C17.8349 23.1852 17.2527 23.4273 16.8235 23.8572C16.3944 24.2872 16.1533 24.8698 16.1533 25.4773V139.478C16.1533 140.085 16.3944 140.668 16.8235 141.098C17.2527 141.528 17.8349 141.77 18.4423 141.771H99.5401C100.148 141.77 100.731 141.528 101.16 141.098C101.59 140.668 101.832 140.086 101.833 139.478V25.4773C101.832 24.8694 101.59 24.2868 101.16 23.857C100.731 23.4272 100.148 23.1852 99.5401 23.1841H18.4423Z" fill="#E6E0E9"/>
<path d="M190.39 141.876H109.288C108.653 141.875 108.043 141.622 107.594 141.172C107.144 140.723 106.891 140.114 106.89 139.478V25.4773C106.897 24.8452 107.152 24.2413 107.601 23.7963C108.05 23.3513 108.656 23.1012 109.288 23.1001H190.39C191.021 23.1023 191.626 23.353 192.073 23.798C192.521 24.243 192.775 24.8464 192.78 25.4773V139.478C192.78 140.112 192.529 140.721 192.081 141.171C191.633 141.62 191.025 141.874 190.39 141.876ZM109.288 23.1841C108.68 23.1852 108.098 23.4272 107.668 23.857C107.238 24.2868 106.996 24.8694 106.995 25.4773V139.478C106.996 140.086 107.238 140.668 107.668 141.098C108.098 141.528 108.68 141.77 109.288 141.771H190.39C190.998 141.77 191.581 141.528 192.011 141.098C192.44 140.668 192.682 140.086 192.684 139.478V25.4773C192.682 24.8694 192.44 24.2868 192.011 23.857C191.581 23.4272 190.998 23.1852 190.39 23.1841H109.288Z" fill="#E6E0E9"/>
<path d="M95.4785 66.7046V76.268L100.401 76.73C101.061 79.8748 102.308 82.867 104.076 85.55L100.913 89.372L107.671 96.134L111.493 92.9672C114.175 94.7371 117.168 95.984 120.313 96.6422L120.775 101.565H130.339L130.805 96.6422C133.949 95.9811 136.941 94.7345 139.625 92.9672L143.443 96.134L150.205 89.372L147.042 85.55C148.811 82.8677 150.056 79.8751 150.713 76.73L155.639 76.268V66.7046L150.713 66.2384C150.056 63.0932 148.811 60.1005 147.042 57.4184L150.205 53.5964L143.443 46.8344L139.65 49.9802C136.967 48.2123 133.975 46.9669 130.83 46.3094L130.364 41.3828H120.788L120.326 46.3094C117.181 46.9661 114.188 48.2116 111.506 49.9802L107.684 46.8176L100.926 53.5796L104.089 57.3974C102.321 60.0809 101.075 63.073 100.414 66.2174L95.4785 66.7046ZM125.58 58.5398C128.14 58.5398 130.643 59.299 132.771 60.7213C134.9 62.1437 136.559 64.1653 137.539 66.5306C138.519 68.8959 138.775 71.4986 138.276 74.0095C137.776 76.5205 136.543 78.827 134.733 80.6373C132.923 82.4476 130.616 83.6804 128.105 84.1799C125.594 84.6794 122.992 84.423 120.626 83.4433C118.261 82.4636 116.239 80.8044 114.817 78.6757C113.395 76.547 112.636 74.0444 112.636 71.4842C112.636 68.0511 113.999 64.7587 116.427 62.3311C118.854 59.9036 122.147 58.5398 125.58 58.5398Z" fill="#E6E0E9"/>
<path d="M79.3211 109.494L82.0679 111.766L86.9399 106.907L84.6551 104.16C85.925 102.229 86.8198 100.076 87.2927 97.814L90.8291 97.4822V90.6152L87.2927 90.2792C86.8205 88.018 85.9257 85.8663 84.6551 83.9372L86.9273 81.1904L82.0679 76.331L79.3211 78.6032C77.3909 77.3319 75.2377 76.437 72.9749 75.9656L72.6431 72.4292H65.7719L65.4401 75.9656C63.1779 76.4385 61.025 77.3333 59.0939 78.6032L56.3471 76.331L51.4919 81.1904L53.7641 83.9372C52.4919 85.8654 51.5969 88.0175 51.1265 90.2792L47.5859 90.6152V97.4864L51.1265 97.8182C51.5969 100.079 52.4903 102.231 53.7599 104.16L51.4877 106.903L56.3429 111.762L59.0897 109.49C61.0202 110.766 63.175 111.666 65.4401 112.14L65.7719 115.681H72.6599L72.9917 112.14C75.2498 111.666 77.3975 110.768 79.3211 109.494ZM59.9087 94.0508C59.9079 92.2105 60.4529 90.4113 61.4748 88.8808C62.4967 87.3502 63.9496 86.1572 65.6497 85.4526C67.3498 84.7479 69.2206 84.5633 71.0256 84.9221C72.8306 85.281 74.4886 86.1671 75.7899 87.4684C77.0912 88.7697 77.9774 90.4277 78.3362 92.2327C78.695 94.0377 78.5104 95.9086 77.8058 97.6086C77.1011 99.3087 75.9081 100.762 74.3776 101.784C72.8471 102.805 71.0479 103.35 69.2075 103.35C66.7417 103.348 64.3771 102.368 62.6335 100.625C60.8899 98.8812 59.9098 96.5167 59.9087 94.0508Z" fill="#E6E0E9"/>
<path d="M109.86 156.034C112.554 155.469 115.118 154.403 117.42 152.893L120.687 155.597L126.471 149.814L123.766 146.546C125.278 144.246 126.343 141.681 126.903 138.986L131.103 138.587V130.414L126.903 130.015C126.343 127.32 125.278 124.755 123.766 122.455L126.471 119.188L120.683 113.4L117.415 116.105C115.114 114.594 112.55 113.529 109.855 112.963L109.456 108.763H101.283L100.863 112.963C98.1686 113.527 95.604 114.593 93.3032 116.105L90.0608 113.4L84.2774 119.183L86.9822 122.451C85.4687 124.751 84.4028 127.316 83.8406 130.011L79.6406 130.41V138.6L83.8406 138.999C84.4028 141.694 85.4687 144.259 86.9822 146.559L84.2774 149.827L90.0608 155.61L93.3284 152.905C95.6292 154.417 98.1938 155.483 100.888 156.047L101.308 160.247H109.486L109.86 156.034ZM94.3196 134.501C94.3196 132.31 94.9693 130.169 96.1865 128.347C97.4036 126.526 99.1336 125.106 101.158 124.268C103.182 123.43 105.409 123.211 107.557 123.639C109.706 124.066 111.679 125.121 113.228 126.671C114.777 128.22 115.831 130.194 116.258 132.343C116.685 134.491 116.465 136.718 115.626 138.742C114.787 140.766 113.367 142.495 111.545 143.712C109.723 144.928 107.582 145.577 105.391 145.576C103.935 145.579 102.493 145.294 101.147 144.739C99.8007 144.184 98.5776 143.368 97.5472 142.339C96.5169 141.311 95.6996 140.089 95.1422 138.744C94.5847 137.399 94.2981 135.957 94.2986 134.501H94.3196Z" fill="#E6E0E9"/>
<path d="M168.651 88.7165H177.685C177.881 88.7146 178.073 88.6619 178.243 88.5635C178.413 88.4651 178.554 88.3244 178.653 88.1552C178.752 87.9859 178.805 87.7939 178.808 87.5978C178.811 87.4018 178.762 87.2084 178.668 87.0365L174.149 79.2119C174.05 79.0391 173.907 78.8955 173.735 78.7956C173.563 78.6957 173.367 78.6431 173.168 78.6431C172.969 78.6431 172.773 78.6957 172.601 78.7956C172.429 78.8955 172.286 79.0391 172.187 79.2119L167.672 87.0365C167.578 87.208 167.53 87.4011 167.532 87.5968C167.535 87.7925 167.588 87.9843 167.686 88.1534C167.785 88.3225 167.925 88.4633 168.095 88.562C168.264 88.6606 168.455 88.7139 168.651 88.7165ZM173.775 81.3245L173.578 85.2221H172.738L172.532 81.3245H173.775ZM172.515 86.5619C172.514 86.4761 172.531 86.3911 172.564 86.3119C172.597 86.2328 172.646 86.1612 172.708 86.1016C172.77 86.0419 172.843 85.9953 172.923 85.9647C173.003 85.9341 173.089 85.9201 173.174 85.9235C173.261 85.9195 173.347 85.9331 173.428 85.9633C173.509 85.9936 173.584 86.0399 173.646 86.0995C173.709 86.1592 173.759 86.2309 173.794 86.3103C173.828 86.3898 173.846 86.4753 173.846 86.5619C173.847 86.6494 173.83 86.736 173.796 86.8167C173.762 86.8973 173.712 86.9703 173.65 87.0312C173.587 87.092 173.512 87.1395 173.431 87.1707C173.349 87.202 173.262 87.2163 173.174 87.2129C173.087 87.2169 172.999 87.203 172.917 87.172C172.835 87.141 172.761 87.0935 172.698 87.0325C172.635 86.9715 172.585 86.8983 172.551 86.8174C172.518 86.7365 172.501 86.6495 172.502 86.5619H172.515Z" fill="#FAFAFA"/>
<path d="M36.5401 53.4366H45.5701C45.7662 53.4347 45.9584 53.382 46.128 53.2836C46.2977 53.1852 46.4389 53.0445 46.5379 52.8753C46.6369 52.706 46.6903 52.514 46.693 52.318C46.6956 52.1219 46.6473 51.9285 46.5529 51.7566L42.0001 43.911C41.9007 43.7383 41.7575 43.5948 41.585 43.4951C41.4124 43.3953 41.2166 43.3428 41.0173 43.3428C40.818 43.3428 40.6222 43.3953 40.4497 43.4951C40.2772 43.5948 40.134 43.7383 40.0345 43.911L35.5363 51.7356C35.4358 51.9096 35.3834 52.1072 35.3843 52.3081C35.3852 52.5091 35.4395 52.7061 35.5417 52.8792C35.6438 53.0522 35.79 53.195 35.9655 53.293C36.1409 53.3909 36.3392 53.4405 36.5401 53.4366ZM41.6641 46.0488L41.4625 49.9422H40.6225L40.4125 46.0488H41.6641ZM40.4041 51.2862C40.4029 51.2004 40.4192 51.1153 40.4518 51.036C40.4845 50.9567 40.5329 50.8848 40.5942 50.8247C40.6554 50.7646 40.7282 50.7176 40.8082 50.6865C40.8881 50.6554 40.9736 50.6408 41.0593 50.6436C41.1484 50.6364 41.2379 50.6478 41.3224 50.6769C41.4068 50.706 41.4843 50.7524 41.55 50.8129C41.6156 50.8735 41.668 50.947 41.7039 51.0288C41.7397 51.1106 41.7582 51.199 41.7582 51.2883C41.7582 51.3777 41.7397 51.466 41.7039 51.5478C41.668 51.6297 41.6156 51.7032 41.55 51.7637C41.4843 51.8243 41.4068 51.8706 41.3224 51.8998C41.2379 51.9289 41.1484 51.9402 41.0593 51.933C40.9706 51.9401 40.8815 51.9285 40.7975 51.899C40.7136 51.8696 40.6367 51.8229 40.5718 51.762C40.507 51.7011 40.4556 51.6273 40.4209 51.5454C40.3862 51.4635 40.3691 51.3752 40.3705 51.2862H40.4041Z" fill="#FAFAFA"/>
<path d="M60.7529 149.684H69.7829C69.982 149.684 70.1777 149.632 70.3501 149.532C70.5226 149.433 70.6659 149.289 70.7655 149.117C70.8651 148.945 70.9176 148.749 70.9176 148.55C70.9176 148.351 70.8653 148.155 70.7657 147.983L66.2507 140.158C66.1513 139.985 66.0081 139.842 65.8355 139.742C65.663 139.642 65.4672 139.59 65.2679 139.59C65.0686 139.59 64.8728 139.642 64.7003 139.742C64.5277 139.842 64.3845 139.985 64.2851 140.158L59.7701 147.983C59.6705 148.155 59.6181 148.351 59.6182 148.55C59.6182 148.749 59.6707 148.945 59.7703 149.117C59.8699 149.289 60.0131 149.433 60.1856 149.532C60.3581 149.632 60.5538 149.684 60.7529 149.684ZM65.8769 142.292L65.6753 146.189H64.8353L64.6253 142.292H65.8769ZM64.6169 147.529C64.6163 147.443 64.633 147.358 64.6662 147.279C64.6994 147.2 64.7483 147.128 64.8099 147.069C64.8716 147.009 64.9447 146.963 65.0249 146.932C65.105 146.901 65.1906 146.887 65.2763 146.891C65.363 146.887 65.4496 146.9 65.5309 146.93C65.6122 146.961 65.6867 147.007 65.7498 147.067C65.8128 147.126 65.8633 147.198 65.8981 147.277C65.933 147.357 65.9515 147.442 65.9525 147.529C65.9526 147.617 65.9349 147.704 65.9006 147.784C65.8664 147.865 65.8161 147.938 65.753 147.999C65.6898 148.059 65.6151 148.107 65.5332 148.138C65.4512 148.169 65.3639 148.183 65.2763 148.18C65.1884 148.185 65.1005 148.171 65.0181 148.14C64.9356 148.11 64.8603 148.062 64.7969 148.001C64.7335 147.94 64.6834 147.867 64.6495 147.786C64.6156 147.704 64.5988 147.617 64.6001 147.529H64.6169Z" fill="#FAFAFA"/>
<path d="M145.32 138.365H154.354C154.553 138.364 154.748 138.311 154.92 138.212C155.092 138.112 155.235 137.969 155.334 137.796C155.433 137.624 155.485 137.429 155.485 137.23C155.485 137.031 155.432 136.836 155.333 136.664L150.822 128.839C150.723 128.667 150.579 128.523 150.407 128.423C150.234 128.324 150.038 128.271 149.839 128.271C149.64 128.271 149.444 128.324 149.272 128.423C149.099 128.523 148.956 128.667 148.856 128.839L144.341 136.664C144.242 136.836 144.19 137.031 144.189 137.23C144.189 137.429 144.241 137.624 144.341 137.796C144.44 137.969 144.582 138.112 144.754 138.212C144.926 138.311 145.121 138.364 145.32 138.365ZM150.444 130.973L150.242 134.87H149.402L149.192 130.973H150.444ZM149.184 136.21C149.183 136.125 149.199 136.04 149.232 135.961C149.264 135.881 149.313 135.81 149.374 135.75C149.436 135.69 149.508 135.644 149.588 135.613C149.668 135.582 149.754 135.568 149.839 135.572C149.926 135.568 150.012 135.581 150.094 135.612C150.175 135.642 150.25 135.688 150.313 135.748C150.376 135.807 150.426 135.879 150.461 135.958C150.496 136.038 150.514 136.124 150.515 136.21C150.515 136.298 150.498 136.385 150.464 136.465C150.429 136.546 150.379 136.619 150.316 136.68C150.253 136.741 150.178 136.788 150.096 136.819C150.014 136.85 149.927 136.865 149.839 136.861C149.752 136.865 149.665 136.85 149.584 136.819C149.503 136.788 149.429 136.74 149.367 136.679C149.305 136.618 149.256 136.545 149.223 136.464C149.19 136.384 149.174 136.297 149.176 136.21H149.184Z" fill="#FAFAFA"/>
<path d="M151.818 39.392H156.82C156.93 39.3916 157.038 39.3625 157.133 39.3074C157.228 39.2524 157.307 39.1734 157.363 39.0782C157.418 38.9831 157.447 38.8751 157.448 38.7651C157.448 38.6551 157.42 38.5469 157.366 38.4512L154.846 34.121C154.791 34.0249 154.712 33.9451 154.617 33.8895C154.521 33.834 154.412 33.8047 154.302 33.8047C154.191 33.8047 154.083 33.834 153.987 33.8895C153.892 33.9451 153.813 34.0249 153.758 34.121L151.259 38.4512C151.203 38.5476 151.173 38.6573 151.174 38.7689C151.174 38.8805 151.205 38.99 151.262 39.0859C151.319 39.1819 151.4 39.2609 151.498 39.3147C151.596 39.3685 151.706 39.3952 151.818 39.392ZM154.657 35.3012L154.56 37.46H154.102L153.985 35.3012H154.657ZM153.951 38.2202C153.951 38.1724 153.96 38.125 153.978 38.0809C153.996 38.0367 154.023 37.9968 154.057 37.9634C154.092 37.93 154.132 37.9039 154.177 37.8867C154.221 37.8695 154.269 37.8615 154.317 37.8632C154.411 37.8632 154.502 37.9008 154.569 37.9677C154.636 38.0347 154.674 38.1255 154.674 38.2202C154.674 38.3149 154.636 38.4057 154.569 38.4726C154.502 38.5396 154.411 38.5772 154.317 38.5772C154.269 38.5789 154.221 38.5709 154.177 38.5537C154.132 38.5364 154.092 38.5103 154.057 38.477C154.023 38.4436 153.996 38.4036 153.978 38.3595C153.96 38.3153 153.951 38.2679 153.951 38.2202Z" fill="#FAFAFA"/>
<path d="M27.0648 105.63H32.067C32.1775 105.631 32.2863 105.602 32.3823 105.548C32.4783 105.493 32.5581 105.414 32.6136 105.318C32.669 105.223 32.6982 105.114 32.6981 105.004C32.698 104.893 32.6687 104.785 32.613 104.689L30.093 100.359C30.039 100.263 29.9603 100.183 29.8651 100.127C29.7699 100.071 29.6616 100.042 29.5512 100.042C29.4409 100.042 29.3326 100.071 29.2374 100.127C29.1422 100.183 29.0635 100.263 29.0094 100.359L26.4894 104.689C26.4323 104.787 26.4027 104.898 26.4038 105.011C26.4049 105.124 26.4367 105.235 26.4957 105.332C26.5548 105.428 26.6389 105.507 26.7391 105.559C26.8393 105.612 26.9519 105.636 27.0648 105.63ZM29.904 101.539L29.7948 103.698H29.337L29.2236 101.539H29.904ZM29.1984 104.441C29.1978 104.394 29.207 104.346 29.2252 104.302C29.2435 104.258 29.2705 104.218 29.3047 104.185C29.3388 104.151 29.3794 104.125 29.424 104.108C29.4685 104.091 29.5161 104.083 29.5638 104.084C29.6585 104.084 29.7493 104.122 29.8163 104.189C29.8832 104.256 29.9208 104.347 29.9208 104.441C29.9208 104.536 29.8832 104.627 29.8163 104.694C29.7493 104.761 29.6585 104.798 29.5638 104.798C29.5161 104.8 29.4685 104.792 29.424 104.775C29.3794 104.758 29.3388 104.731 29.3047 104.698C29.2705 104.665 29.2435 104.625 29.2252 104.581C29.207 104.536 29.1978 104.489 29.1984 104.441Z" fill="#FAFAFA"/>
<path d="M122.842 73.6218H127.844C127.954 73.6211 128.062 73.5915 128.158 73.5359C128.253 73.4804 128.332 73.4008 128.387 73.3051C128.441 73.2095 128.47 73.1011 128.47 72.9908C128.47 72.8806 128.441 72.7723 128.386 72.6768L125.887 68.3466C125.832 68.2505 125.753 68.1707 125.657 68.1151C125.562 68.0595 125.453 68.0303 125.343 68.0303C125.232 68.0303 125.124 68.0595 125.028 68.1151C124.933 68.1707 124.854 68.2505 124.799 68.3466L122.279 72.6768C122.223 72.7738 122.194 72.8841 122.194 72.9961C122.195 73.1082 122.226 73.2181 122.283 73.3144C122.34 73.4107 122.422 73.4899 122.521 73.544C122.619 73.598 122.73 73.6248 122.842 73.6218ZM125.677 69.5268L125.567 71.6856H125.11L124.996 69.5268H125.677ZM124.975 72.429C124.975 72.3816 124.984 72.3345 125.002 72.2907C125.02 72.2468 125.046 72.2071 125.08 72.1737C125.114 72.1404 125.154 72.1142 125.198 72.0967C125.242 72.0793 125.289 72.0708 125.336 72.072C125.408 72.072 125.478 72.0933 125.538 72.1331C125.597 72.173 125.643 72.2297 125.671 72.2959C125.698 72.3622 125.705 72.435 125.69 72.5052C125.676 72.5754 125.641 72.6397 125.59 72.6901C125.539 72.7404 125.475 72.7745 125.404 72.7879C125.334 72.8014 125.261 72.7936 125.195 72.7656C125.129 72.7377 125.073 72.6907 125.034 72.6308C124.995 72.5708 124.974 72.5006 124.975 72.429Z" fill="#FAFAFA"/>
<path d="M81.9211 37.0986H68.9263V45.6876H81.9211V37.0986Z" fill="#E6E0E9"/>
<path d="M81.9463 37.0986H68.9263V38.5098H81.9463V37.0986Z" fill="#FAFAFA"/>
<path d="M53.5246 68.9473H40.5298V77.5363H53.5246V68.9473Z" fill="#E6E0E9"/>
<path d="M53.5498 68.9473H40.5298V70.3585H53.5498V68.9473Z" fill="#FAFAFA"/>
<path d="M51.7272 130.083H38.7324V138.672H51.7272V130.083Z" fill="#E6E0E9"/>
<path d="M51.7524 130.083H38.7324V131.494H51.7524V130.083Z" fill="#FAFAFA"/>
<path d="M151.779 107.949H138.785V116.538H151.779V107.949Z" fill="#E6E0E9"/>
<path d="M151.805 107.949H138.785V109.36H151.805V107.949Z" fill="#FAFAFA"/>
<path d="M180.26 119.091H167.265V127.68H180.26V119.091Z" fill="#E6E0E9"/>
<path d="M180.285 119.091H167.265V120.503H180.285V119.091Z" fill="#FAFAFA"/>
<path d="M175.48 54.9194H162.485V63.5084H175.48V54.9194Z" fill="#E6E0E9"/>
<path d="M175.505 54.9194H162.485V56.3306H175.505V54.9194Z" fill="#FAFAFA"/>
<path d="M105 179.575C149.975 179.575 186.434 177.447 186.434 174.821C186.434 172.195 149.975 170.066 105 170.066C60.0256 170.066 23.5664 172.195 23.5664 174.821C23.5664 177.447 60.0256 179.575 105 179.575Z" fill="#F5F5F5"/>
<path d="M89.6617 50.1563H77.5993C76.6135 50.1563 75.6681 50.5479 74.971 51.245C74.2739 51.9421 73.8823 52.8875 73.8823 53.8733V64.3733C73.8823 64.8612 73.9785 65.3444 74.1653 65.7951C74.3522 66.2458 74.6261 66.6553 74.9713 67.0001C75.3165 67.345 75.7263 67.6184 76.1772 67.8047C76.6281 67.991 77.1114 68.0867 77.5993 68.0861H79.8589L79.0189 71.4041L82.3789 68.0861H89.6869C90.1745 68.0861 90.6573 67.9901 91.1078 67.8035C91.5582 67.6169 91.9675 67.3434 92.3123 66.9987C92.657 66.6539 92.9305 66.2446 93.1171 65.7941C93.3037 65.3437 93.3997 64.8609 93.3997 64.3733V53.8733C93.3997 53.3834 93.3029 52.8984 93.1148 52.446C92.9267 51.9937 92.651 51.583 92.3036 51.2375C91.9562 50.8921 91.544 50.6188 91.0906 50.4332C90.6372 50.2476 90.1516 50.1535 89.6617 50.1563Z" fill="#2EA3F2"/>
<path opacity="0.7" d="M89.6617 50.1563H77.5993C76.6135 50.1563 75.6681 50.5479 74.971 51.245C74.2739 51.9421 73.8823 52.8875 73.8823 53.8733V64.3733C73.8823 64.8612 73.9785 65.3444 74.1653 65.7951C74.3522 66.2458 74.6261 66.6553 74.9713 67.0001C75.3165 67.345 75.7263 67.6184 76.1772 67.8047C76.6281 67.991 77.1114 68.0867 77.5993 68.0861H79.8589L79.0189 71.4041L82.3789 68.0861H89.6869C90.1745 68.0861 90.6573 67.9901 91.1078 67.8035C91.5582 67.6169 91.9675 67.3434 92.3123 66.9987C92.657 66.6539 92.9305 66.2446 93.1171 65.7941C93.3037 65.3437 93.3997 64.8609 93.3997 64.3733V53.8733C93.3997 53.3834 93.3029 52.8984 93.1148 52.446C92.9267 51.9937 92.651 51.583 92.3036 51.2375C91.9562 50.8921 91.544 50.6188 91.0906 50.4332C90.6372 50.2476 90.1516 50.1535 89.6617 50.1563Z" fill="white"/>
<path d="M83.6305 65.4315C82.4011 65.4315 81.1993 65.0669 80.1771 64.3839C79.1549 63.7009 78.3582 62.7301 77.8877 61.5943C77.4172 60.4584 77.2941 59.2086 77.534 58.0028C77.7738 56.797 78.3659 55.6895 79.2352 54.8201C80.1045 53.9508 81.2121 53.3588 82.4179 53.119C83.6237 52.8791 84.8735 53.0022 86.0093 53.4727C87.1451 53.9432 88.1159 54.7399 88.799 55.7621C89.482 56.7843 89.8466 57.9861 89.8466 59.2155C89.8443 60.8634 89.1887 62.4432 88.0235 63.6084C86.8582 64.7737 85.2785 65.4293 83.6305 65.4315ZM83.6305 53.8395C82.5673 53.8395 81.5279 54.1548 80.6438 54.7455C79.7597 55.3363 79.0707 56.1759 78.6638 57.1582C78.2569 58.1405 78.1504 59.2215 78.3578 60.2643C78.5653 61.3072 79.0773 62.2651 79.8291 63.0169C80.581 63.7688 81.5389 64.2808 82.5817 64.4882C83.6246 64.6956 84.7055 64.5892 85.6879 64.1823C86.6702 63.7754 87.5098 63.0863 88.1005 62.2023C88.6913 61.3182 89.0066 60.2788 89.0066 59.2155C89.0054 57.7901 88.4387 56.4233 87.4307 55.4153C86.4228 54.4074 85.056 53.8406 83.6305 53.8395Z" fill="#2EA3F2"/>
<path d="M82.6772 61.6179C82.6196 61.6177 82.5627 61.6057 82.5099 61.5826C82.4572 61.5595 82.4098 61.5257 82.3706 61.4835L80.5394 59.5011C80.5017 59.4604 80.4723 59.4127 80.4531 59.3606C80.434 59.3085 80.4253 59.2531 80.4276 59.1977C80.43 59.1422 80.4433 59.0878 80.4668 59.0375C80.4903 58.9872 80.5236 58.9421 80.5646 58.9047C80.6466 58.8298 80.7549 58.7903 80.8659 58.795C80.9769 58.7998 81.0815 58.8483 81.1568 58.9299L82.6814 60.5847L86.1002 56.9517C86.1789 56.8735 86.2854 56.8296 86.3963 56.8296C86.5073 56.8296 86.6137 56.8735 86.6924 56.9517C86.7318 56.9908 86.763 57.0372 86.7843 57.0884C86.8057 57.1396 86.8166 57.1945 86.8166 57.2499C86.8166 57.3054 86.8057 57.3603 86.7843 57.4114C86.763 57.4626 86.7318 57.5091 86.6924 57.5481L82.9586 61.5045C82.8822 61.5761 82.7819 61.6165 82.6772 61.6179Z" fill="#2EA3F2"/>
<path d="M68.5859 172.738L71.5091 172.687L72.2357 165.934L69.3125 165.984L68.5859 172.738Z" fill="#E4897B"/>
<path opacity="0.2" d="M72.236 165.938L71.8622 169.416L68.939 169.466L69.3128 165.984L72.236 165.938Z" fill="black"/>
<path d="M75.4406 141.561C75.4406 150.801 72.8408 168.395 72.8408 168.395L67.952 169.155C67.952 169.155 67.4774 152.75 67.2926 143.669C67.2632 142.334 63.5378 135.874 59.699 129.566C57.7208 126.315 55.7132 123.098 54.1592 120.641C52.5002 118.012 51.3662 116.248 51.3662 116.248L62.9708 111.905C62.9708 111.905 75.4322 132.665 75.4406 141.561Z" fill="#2EA3F2"/>
<path d="M73.5253 168.68L67.6369 169.054L67.5361 167.16L73.9999 166.652L73.5253 168.68Z" fill="#263238"/>
<path d="M71.6519 172.28C71.6512 172.265 71.6548 172.251 71.6623 172.238C71.6698 172.226 71.6807 172.215 71.6939 172.209C71.8283 172.146 73.0253 171.587 73.3739 171.789C73.4069 171.808 73.4341 171.835 73.4526 171.869C73.4711 171.902 73.4802 171.94 73.4789 171.978C73.4836 172.04 73.4731 172.103 73.4482 172.161C73.4233 172.219 73.3849 172.27 73.3361 172.31C73.0043 172.578 72.1727 172.44 71.7065 172.331C71.6935 172.328 71.6814 172.323 71.6716 172.314C71.6619 172.305 71.6551 172.293 71.6519 172.28ZM71.9417 172.247C72.5801 172.377 73.0631 172.364 73.2479 172.209C73.281 172.184 73.3069 172.15 73.3231 172.112C73.3393 172.074 73.3452 172.032 73.3403 171.99C73.3414 171.976 73.3385 171.962 73.3318 171.949C73.3251 171.937 73.3149 171.926 73.3025 171.919H73.2773C73.0799 171.822 72.4121 172.045 71.9417 172.247Z" fill="#2EA3F2"/>
<path d="M71.6775 172.326C71.6684 172.319 71.6614 172.309 71.657 172.298C71.6526 172.287 71.651 172.275 71.6523 172.263C71.6995 171.852 71.8743 171.466 72.1521 171.159C72.2064 171.115 72.269 171.083 72.3362 171.064C72.4033 171.045 72.4736 171.04 72.5427 171.05C72.7317 171.079 72.7821 171.176 72.7905 171.251C72.8325 171.583 72.1059 172.188 71.7489 172.335C71.7411 172.339 71.7325 172.341 71.7237 172.341C71.715 172.341 71.7063 172.339 71.6985 172.335L71.6775 172.326ZM72.5175 171.188C72.467 171.181 72.4156 171.185 72.3665 171.198C72.3174 171.212 72.2716 171.236 72.2319 171.268C72.0039 171.511 71.8571 171.82 71.8119 172.15C72.1773 171.948 72.6519 171.47 72.6519 171.268C72.6476 171.253 72.6395 171.239 72.6285 171.228C72.6175 171.217 72.6039 171.209 72.5889 171.205C72.5674 171.196 72.5448 171.191 72.5217 171.188H72.5175Z" fill="#2EA3F2"/>
<path d="M71.4253 171.923L68.2333 171.822C68.1757 171.821 68.1193 171.839 68.0729 171.873C68.0266 171.907 67.9928 171.956 67.9771 172.011L67.2925 174.578C67.2751 174.64 67.2722 174.705 67.284 174.768C67.2958 174.831 67.322 174.891 67.3605 174.943C67.3991 174.994 67.449 175.036 67.5064 175.065C67.5638 175.094 67.6271 175.11 67.6915 175.111C68.8465 175.111 70.5097 175.111 71.9587 175.161C73.6387 175.216 74.7265 175.136 76.7089 175.203C77.9059 175.241 78.2923 174.044 77.7925 173.918C75.5287 173.347 74.0461 173.452 72.1183 172.175C71.9154 172.028 71.6753 171.941 71.4253 171.923Z" fill="#263238"/>
<path opacity="0.2" d="M59.699 129.566C57.7208 126.315 55.7132 123.098 54.1592 120.641C54.7786 119.852 55.4971 119.146 56.297 118.541C56.297 118.541 59.6864 124.438 59.699 129.566Z" fill="black"/>
<path d="M35.6162 172.385L38.4386 173.149L41.0174 166.866L38.195 166.102L35.6162 172.385Z" fill="#E4897B"/>
<path opacity="0.2" d="M41.0134 166.87L39.6862 170.108L36.8638 169.34L38.191 166.102L41.0134 166.87Z" fill="black"/>
<path d="M63.2649 109.397L63.0297 113.459L55.9905 119.074C55.9905 119.074 55.5075 137.974 53.5041 142.115C51.5007 146.257 41.8659 167.945 41.8659 167.945L36.5991 166.32C36.5991 166.32 44.9697 140.826 45.8139 139.318C46.6581 137.81 42.2229 115.828 48.1617 105.433L63.2649 109.397Z" fill="#2EA3F2"/>
<path d="M71.9461 91.2744C72.2443 93.1686 72.4921 95.0544 72.7105 96.957C72.9289 98.8596 73.1305 100.762 73.2481 102.707L73.3237 103.967C73.3584 104.276 73.4332 104.58 73.5463 104.87C73.828 105.565 74.2241 106.208 74.7181 106.772C75.2703 107.42 75.8789 108.017 76.5367 108.557C76.8769 108.835 77.2255 109.12 77.5867 109.397C77.9479 109.675 78.3343 109.922 78.6661 110.149L77.8261 112.161C77.3265 112.013 76.8357 111.836 76.3561 111.632C75.8899 111.43 75.4195 111.212 74.9659 110.977C74.0254 110.482 73.1434 109.883 72.3367 109.192C71.4467 108.442 70.7033 107.533 70.1443 106.512C69.8365 105.947 69.6089 105.342 69.4681 104.714C69.4261 104.559 69.4051 104.391 69.3757 104.227L69.3169 103.807L69.2203 103.123L68.3803 97.5282C68.0989 95.655 67.8343 93.7734 67.5991 91.896L71.9461 91.2744Z" fill="#DC897C"/>
<path d="M65.8353 86.1003C64.2015 88.3683 67.0071 97.0203 67.0071 97.0203L73.5003 95.4537C73.2795 92.9286 72.7867 90.4347 72.0303 88.0155C70.8207 84.5253 67.6203 83.6055 65.8353 86.1003Z" fill="#2EA3F2"/>
<path opacity="0.7" d="M65.8353 86.1003C64.2015 88.3683 67.0071 97.0203 67.0071 97.0203L73.5003 95.4537C73.2795 92.9286 72.7867 90.4347 72.0303 88.0155C70.8207 84.5253 67.6203 83.6055 65.8353 86.1003Z" fill="white"/>
<path opacity="0.2" d="M68.04 90.7204C69.1656 91.7956 69.8166 94.5676 69.405 96.4366L67.0068 97.0204C66.353 94.9295 65.8561 92.7928 65.52 90.628C66.129 90.124 66.7464 89.4982 68.04 90.7204Z" fill="black"/>
<path d="M53.9282 80.7661C53.7038 84.0165 53.2363 87.2455 52.5296 90.4261C52.0466 92.6479 51.4922 94.7353 50.9462 96.6169C49.6862 101.023 48.4262 104.29 48.1616 105.437L63.2816 109.389C70.7492 94.3993 69.7286 85.0291 69.7286 85.0291C68.6425 84.4199 67.5204 83.8771 66.3686 83.4037C66.125 83.3029 65.873 83.2105 65.6168 83.1181C63.5106 82.4341 61.3664 81.8732 59.195 81.4381C58.775 81.3499 58.355 81.2743 57.935 81.2029C55.835 80.8711 53.9282 80.7661 53.9282 80.7661Z" fill="#2EA3F2"/>
<path opacity="0.7" d="M53.9282 80.7661C53.7038 84.0165 53.2363 87.2455 52.5296 90.4261C52.0466 92.6479 51.4922 94.7353 50.9462 96.6169C49.6862 101.023 48.4262 104.29 48.1616 105.437L63.2816 109.389C70.7492 94.3993 69.7286 85.0291 69.7286 85.0291C68.6425 84.4199 67.5204 83.8771 66.3686 83.4037C66.125 83.3029 65.873 83.2105 65.6168 83.1181C63.5106 82.4341 61.3664 81.8732 59.195 81.4381C58.775 81.3499 58.355 81.2743 57.935 81.2029C55.835 80.8711 53.9282 80.7661 53.9282 80.7661Z" fill="white"/>
<path d="M64.5921 84.118C63.8151 82.732 64.6762 81.5392 65.7136 80.5438L64.0965 75.4702C63.3153 77.4946 61.5765 81.0184 59.5605 81.4384C59.7703 82.4162 60.2013 83.3328 60.8205 84.118H64.5921Z" fill="#E4897B"/>
<path opacity="0.2" d="M64.7558 77.5405L65.7134 80.5393C65.422 80.8123 65.1549 81.1102 64.9154 81.4297C64.2098 80.8417 63.6764 79.3297 64.1006 78.4897C64.2578 78.1352 64.48 77.8132 64.7558 77.5405Z" fill="black"/>
<path d="M74.5502 75.7221C74.4704 76.1085 71.0306 75.3021 70.4972 74.5377C69.9638 73.7733 71.7026 73.3785 72.7862 73.9413C73.5164 74.3748 74.1236 74.9878 74.5502 75.7221Z" fill="#2EA3F2"/>
<path opacity="0.3" d="M74.5502 75.7221C74.4704 76.1085 71.0306 75.3021 70.4972 74.5377C69.9638 73.7733 71.7026 73.3785 72.7862 73.9413C73.5164 74.3748 74.1236 74.9878 74.5502 75.7221Z" fill="black"/>
<path d="M72.9457 73.7731C72.9457 74.9491 72.0343 77.0827 70.7743 75.8731C69.5143 74.6635 72.9667 71.7529 72.9457 73.7731Z" fill="#263238"/>
<path d="M71.0725 78.7374C70.866 79.091 70.6344 79.4293 70.3795 79.7496C68.6491 81.9294 65.1883 81.8202 63.8989 79.3716C63.8093 79.2082 63.7321 79.0384 63.6679 78.8634C62.9665 76.9188 63.7267 75.3984 64.7851 72.7104C65.0257 72.081 65.4222 71.523 65.9373 71.0886C66.4524 70.6543 67.0694 70.3577 67.7304 70.2268C68.3914 70.0958 69.0748 70.1348 69.7166 70.34C70.3584 70.5452 70.9376 70.9099 71.4001 71.4C73.1977 73.29 72.3871 76.5324 71.0725 78.7374Z" fill="#E4897B"/>
<path d="M66.7381 68.04C66.14 68.2262 65.5945 68.5515 65.1463 68.9892C63.5839 70.4256 62.4457 72.576 64.4239 74.7474C65.8561 74.2098 66.5617 72.2274 66.7381 71.6604V68.04Z" fill="#263238"/>
<path d="M62.7564 74.4157C62.7112 74.772 62.7373 75.1337 62.8332 75.4798C62.9291 75.8259 63.0929 76.1495 63.315 76.4317C63.9156 77.1835 64.785 76.7845 65.0916 75.9277C65.373 75.1549 65.3982 73.8277 64.5666 73.4077C64.3838 73.3178 64.182 73.2735 63.9783 73.2787C63.7747 73.2839 63.5754 73.3384 63.3974 73.4375C63.2194 73.5366 63.0682 73.6773 62.9565 73.8477C62.8449 74.0181 62.7762 74.213 62.7564 74.4157Z" fill="#E4897B"/>
<path d="M68.4351 75.2558C68.3343 75.4658 68.3679 75.6758 68.5107 75.7556C68.6535 75.8354 68.8425 75.6968 68.9307 75.4826C69.0189 75.2684 68.9979 75.0626 68.8551 74.9828C68.7123 74.903 68.5359 75.0416 68.4351 75.2558Z" fill="#263238"/>
<path d="M70.8582 76.356C70.7574 76.566 70.791 76.776 70.9296 76.8558C71.0682 76.9356 71.2656 76.797 71.3496 76.587C71.4336 76.377 71.4126 76.167 71.274 76.083C71.1354 75.999 70.9548 76.1418 70.8582 76.356Z" fill="#263238"/>
<path d="M70.0394 76.1128C70.0083 76.8627 70.0819 77.6133 70.2578 78.343C70.0647 78.3733 69.8674 78.3628 69.6786 78.3122C69.4897 78.2615 69.3136 78.1719 69.1616 78.049L70.0394 76.1128Z" fill="#DE5753"/>
<path d="M67.6201 78.3427C67.7068 78.3968 67.7965 78.4459 67.8889 78.4897C67.9058 78.496 67.9244 78.4961 67.9413 78.49C67.9582 78.4838 67.9724 78.4718 67.9813 78.4561C67.9855 78.4479 67.9879 78.4389 67.9885 78.4297C67.9891 78.4205 67.9877 78.4113 67.9846 78.4026C67.9814 78.3939 67.9765 78.386 67.9702 78.3793C67.9638 78.3726 67.9562 78.3673 67.9477 78.3637C67.6788 78.2498 67.441 78.0734 67.254 77.8491C67.067 77.6249 66.9362 77.3592 66.8725 77.0743C66.8669 77.0587 66.8561 77.0455 66.8419 77.037C66.8277 77.0285 66.8109 77.0252 66.7945 77.0277C66.7781 77.0301 66.7631 77.0383 66.7521 77.0506C66.741 77.0629 66.7346 77.0787 66.7339 77.0953C66.7879 77.353 66.8945 77.5967 67.047 77.8113C67.1995 78.026 67.3946 78.2069 67.6201 78.3427Z" fill="#263238"/>
<path d="M68.0402 74.1388C68.062 74.1513 68.0866 74.1579 68.1116 74.1579C68.1367 74.1579 68.1613 74.1513 68.183 74.1388C68.3338 74.0523 68.5028 74.0022 68.6764 73.9928C68.8499 73.9833 69.0233 74.0146 69.1826 74.0842C69.1986 74.0931 69.2162 74.0987 69.2344 74.1008C69.2525 74.1029 69.2709 74.1013 69.2885 74.0962C69.3061 74.0912 69.3225 74.0827 69.3367 74.0712C69.351 74.0598 69.3629 74.0456 69.3716 74.0296C69.3804 74.0139 69.386 73.9967 69.388 73.9788C69.39 73.961 69.3885 73.9429 69.3834 73.9257C69.3783 73.9084 69.3698 73.8924 69.3584 73.8785C69.347 73.8646 69.3329 73.8532 69.317 73.8448C69.118 73.753 68.9 73.7096 68.681 73.7184C68.4619 73.7272 68.2481 73.7877 68.057 73.8952C68.0408 73.9032 68.0263 73.9144 68.0145 73.9281C68.0027 73.9418 67.9938 73.9578 67.9883 73.9751C67.9828 73.9923 67.9808 74.0105 67.9825 74.0285C67.9843 74.0466 67.9896 74.0641 67.9982 74.08C68.0073 74.1027 68.0217 74.1229 68.0402 74.1388Z" fill="#263238"/>
<path d="M72.2864 76.0204C72.3092 76.0376 72.3379 76.0451 72.3662 76.0414C72.3842 76.0414 72.402 76.0378 72.4186 76.0308C72.4352 76.0238 72.4502 76.0135 72.4628 76.0006C72.4753 75.9876 72.4851 75.9723 72.4916 75.9555C72.4981 75.9387 72.5012 75.9208 72.5006 75.9028C72.5009 75.6842 72.4488 75.4686 72.3486 75.2743C72.2485 75.0799 72.1033 74.9123 71.9252 74.7856C71.8931 74.7677 71.8554 74.7626 71.8196 74.7711C71.7839 74.7797 71.7526 74.8013 71.732 74.8318C71.7133 74.863 71.7077 74.9004 71.7164 74.9358C71.725 74.9711 71.7472 75.0017 71.7782 75.0208C71.9184 75.1217 72.032 75.2549 72.1096 75.4093C72.1871 75.5636 72.2261 75.7343 72.2234 75.907C72.2226 75.9298 72.2281 75.9524 72.2392 75.9724C72.2503 75.9924 72.2666 76.009 72.2864 76.0204Z" fill="#263238"/>
<path d="M72.8366 74.5376C70.9046 73.0382 68.4392 72.3578 66.5114 72.047C65.4749 71.8719 64.4252 71.7862 63.374 71.7908C63.458 70.7072 64.844 68.2292 65.7134 68.0486C67.174 67.8751 68.6525 67.9246 70.0982 68.1956C71.1146 68.5736 73.1348 70.0394 73.286 70.6568C73.601 71.9462 72.8366 74.5376 72.8366 74.5376Z" fill="#2EA3F2"/>
<path d="M66.5073 72.0426C66.5073 72.0426 69.0693 71.4714 71.3121 72.3408C73.5549 73.2102 74.5503 75.7008 74.5503 75.7008C74.5503 75.7008 74.3529 75.1842 72.5007 74.5164C70.4469 73.7982 68.7081 73.7856 66.5073 72.0426Z" fill="#2EA3F2"/>
<path opacity="0.1" d="M70.0982 68.1956C70.0982 68.1956 67.8092 69.1826 67.6496 69.3422C67.49 69.5018 66.5114 72.047 66.5114 72.047C65.4749 71.8719 64.4252 71.7862 63.374 71.7908C63.458 70.7072 64.844 68.2292 65.7134 68.0486C67.174 67.8751 68.6525 67.9246 70.0982 68.1956Z" fill="black"/>
<path opacity="0.1" d="M66.5073 72.0426C66.5073 72.0426 69.0693 71.4714 71.3121 72.3408C73.5549 73.2102 74.5503 75.7008 74.5503 75.7008C74.5503 75.7008 74.3529 75.1842 72.5007 74.5164C70.4469 73.7982 68.7081 73.7856 66.5073 72.0426Z" fill="black"/>
<path opacity="0.3" d="M71.0725 78.7375C70.8661 79.091 70.6345 79.4293 70.3795 79.7497C68.6491 81.9295 65.1883 81.8203 63.8989 79.3717C63.8206 77.5361 64.2977 75.7196 65.2681 74.1595L65.7133 73.6807C65.7133 73.6807 65.1589 75.8185 65.3227 76.2385C65.4865 76.6585 66.6751 76.1209 67.2253 76.4695C67.5883 76.7354 67.8563 77.1108 67.9897 77.5405L67.6495 77.7547C67.6495 77.7547 66.9817 76.6879 66.7381 76.6585C66.4945 76.6291 65.3311 77.6917 65.4361 78.0571C65.5411 78.4225 65.3647 78.6073 65.7133 78.7711C66.0619 78.9349 66.9103 78.3763 66.9103 78.3763L67.3723 78.7963C67.3723 78.7963 66.6331 79.5859 66.7465 79.7455C66.9414 79.8904 67.1678 79.9873 67.4072 80.0282C67.6466 80.069 67.8922 80.0528 68.1241 79.9807C68.6533 79.7665 68.6323 78.6115 68.7331 78.4939C68.8339 78.3763 67.9183 77.9773 67.9183 77.9773L68.1997 77.5573C68.1997 77.5573 69.3547 78.2923 69.3967 78.5107C69.4387 78.7291 69.2119 79.3927 69.3967 79.3927C69.9947 79.2928 70.5654 79.0697 71.0725 78.7375Z" fill="black"/>
<path d="M72.0934 71.8956L72.0304 71.6478L72.211 71.4714L72.631 71.5806C72.6121 71.4969 72.5709 71.4199 72.5117 71.3578C72.4526 71.2957 72.3777 71.2508 72.295 71.2278C72.2164 71.2056 72.1333 71.2047 72.0543 71.2254C71.9753 71.2461 71.9032 71.2875 71.8456 71.3454C71.8281 71.3328 71.808 71.3242 71.7868 71.3202L70.678 71.0052H70.6192C70.5972 70.9243 70.554 70.8508 70.4941 70.7922C70.4341 70.7336 70.3596 70.6921 70.2782 70.672C70.1969 70.6518 70.1116 70.6538 70.0312 70.6777C69.9509 70.7016 69.8784 70.7465 69.8212 70.8078L70.2412 70.9212L70.3042 71.1648L70.1236 71.3412L69.7036 71.232C69.7229 71.3155 69.7643 71.3923 69.8234 71.4544C69.8825 71.5164 69.9572 71.5615 70.0396 71.5848C70.1179 71.6068 70.2006 71.6078 70.2794 71.5879C70.3582 71.568 70.4305 71.5279 70.489 71.4714H70.5478L71.6566 71.7864C71.676 71.7905 71.696 71.7905 71.7154 71.7864C71.7374 71.8673 71.7806 71.9409 71.8405 71.9995C71.9005 72.0581 71.975 72.0996 72.0564 72.1197C72.1378 72.1398 72.223 72.1378 72.3034 72.114C72.3837 72.0901 72.4562 72.0451 72.5134 71.9838L72.0934 71.8956Z" fill="white"/>
<path d="M78.1451 109.889L80.9759 110.792L78.7205 113.195C78.7205 113.195 76.2425 112.237 76.7885 110.981L78.1451 109.889Z" fill="#E4897B"/>
<path d="M82.4083 113.917L81.5599 115.45L78.7207 113.194L80.9761 110.792L82.4083 113.917Z" fill="#E4897B"/>
<path d="M53.7602 86.8144C52.4624 88.3012 51.1394 89.8384 49.8836 91.3672C49.2452 92.1274 48.6236 92.9044 48.0566 93.6688C47.5047 94.3826 47.0023 95.1333 46.553 95.9158C46.4775 96.0517 46.4102 96.1919 46.3514 96.3358C46.3514 96.3778 46.322 96.4114 46.3262 96.3736C46.3304 96.3358 46.3262 96.3736 46.3262 96.3358V96.1468C46.3057 95.9474 46.2517 95.7529 46.1666 95.5714C46.1264 95.4905 46.0815 95.412 46.0322 95.3362C45.9818 95.2648 45.9188 95.1934 45.8852 95.1514C45.8516 95.1094 45.7928 95.0632 45.7466 95.0212L45.6374 94.9372C45.5857 94.9016 45.5308 94.8707 45.4736 94.8448L45.3812 94.8028H45.335C45.3014 94.8028 45.335 94.8028 45.398 94.828C45.5663 94.868 45.7378 94.8933 45.9104 94.9036C46.3304 94.9372 46.7966 94.9456 47.2712 94.9372C47.7458 94.9288 48.2372 94.9372 48.7328 94.8994C50.7068 94.807 52.7396 94.6558 54.7598 94.534L55.1798 96.6802C53.1956 97.3464 51.1696 97.8809 49.115 98.2804C48.0323 98.5024 46.9344 98.6428 45.8306 98.7004C45.4929 98.7126 45.1548 98.7028 44.8184 98.671C44.5867 98.6465 44.3576 98.6015 44.1338 98.5366C44.0566 98.5165 43.9808 98.4913 43.907 98.461C43.823 98.4274 43.7474 98.4022 43.6382 98.3476C43.5234 98.2916 43.4138 98.2255 43.3106 98.1502C43.247 98.1087 43.1866 98.0624 43.13 98.0116C43.0544 97.9486 42.9872 97.8814 42.92 97.8142C42.8449 97.7328 42.7761 97.6458 42.7142 97.5538C42.644 97.4549 42.5835 97.3494 42.5336 97.2388C42.4195 97 42.3498 96.7424 42.3278 96.4786C42.3236 96.4143 42.3236 96.3498 42.3278 96.2854V96.0964C42.323 96.0209 42.323 95.9451 42.3278 95.8696C42.3538 95.6295 42.4001 95.3921 42.4664 95.1598C42.5664 94.8158 42.6899 94.479 42.836 94.1518C43.322 93.1254 43.8938 92.1419 44.5454 91.2118C45.1502 90.3004 45.7802 89.4604 46.4186 88.6204C47.7122 86.9404 49.0394 85.3906 50.4716 83.8408L53.7602 86.8144Z" fill="#DC897C"/>
<path d="M53.0379 80.7999C50.2743 81.2199 45.9399 88.3599 45.9399 88.3599L51.9375 92.2575C53.4758 90.3329 54.8353 88.272 55.9989 86.1003C57.8091 82.6227 56.3811 80.2707 53.0379 80.7999Z" fill="#2EA3F2"/>
<path opacity="0.7" d="M53.0379 80.7999C50.2743 81.2199 45.9399 88.3599 45.9399 88.3599L51.9375 92.2575C53.4758 90.3329 54.8353 88.272 55.9989 86.1003C57.8091 82.6227 56.3811 80.2707 53.0379 80.7999Z" fill="white"/>
<path d="M59.1613 81.4507L60.6397 80.3755L63.3949 84.0631L64.4575 82.2193L65.5831 83.1307C65.878 83.6415 66.0332 84.2209 66.0332 84.8107C66.0332 85.4005 65.878 85.9799 65.5831 86.4907L63.3739 84.6805L60.9967 86.2051C60.9967 86.2051 58.4683 83.2609 59.1613 81.4507Z" fill="#2EA3F2"/>
<path d="M55.8182 75.9864C56.6533 77.0473 57.1915 78.3109 57.3777 79.6481C57.5639 80.9853 57.3914 82.3479 56.878 83.5965C56.3645 84.8451 55.5285 85.9349 54.4555 86.7542C53.3825 87.5736 52.111 88.0931 50.7713 88.2596C49.4315 88.4261 48.0716 88.2336 46.8306 87.7018C45.5897 87.17 44.5124 86.318 43.7089 85.233C42.9055 84.1481 42.4048 82.8691 42.258 81.527C42.1113 80.1849 42.3238 78.828 42.8738 77.595L47.036 82.887L51.0932 82.3032L52.6178 78.498L48.4556 73.206C49.8197 72.9536 51.2269 73.0792 52.5247 73.5693C53.8225 74.0594 54.9615 74.8953 55.8182 75.9864Z" fill="#2EA3F2"/>
<path d="M85.2604 138.029C84.4271 136.968 83.8905 135.706 83.7054 134.37C83.5203 133.034 83.6933 131.673 84.2068 130.425C84.7203 129.178 85.5559 128.09 86.628 127.272C87.7002 126.453 88.9704 125.934 90.3089 125.768C91.6473 125.602 93.0059 125.794 94.2457 126.325C95.4855 126.856 96.5621 127.707 97.3652 128.79C98.1684 129.874 98.6693 131.151 98.8168 132.492C98.9643 133.832 98.7531 135.188 98.2048 136.42L94.0426 131.128L89.9854 131.712L88.4608 135.522L92.623 140.809C91.2589 141.062 89.8517 140.936 88.5539 140.446C87.256 139.956 86.1171 139.12 85.2604 138.029Z" fill="#2EA3F2"/>
<g opacity="0.2">
<path d="M55.8182 75.9864C56.6533 77.0473 57.1915 78.3109 57.3777 79.6481C57.5639 80.9853 57.3914 82.3479 56.878 83.5965C56.3645 84.8451 55.5285 85.9349 54.4555 86.7542C53.3825 87.5736 52.111 88.0931 50.7713 88.2596C49.4315 88.4261 48.0716 88.2336 46.8306 87.7018C45.5897 87.17 44.5124 86.318 43.7089 85.233C42.9055 84.1481 42.4048 82.8691 42.258 81.527C42.1113 80.1849 42.3238 78.828 42.8738 77.595L47.036 82.887L51.0932 82.3032L52.6178 78.498L48.4556 73.206C49.8197 72.9536 51.2269 73.0792 52.5247 73.5693C53.8225 74.0594 54.9615 74.8953 55.8182 75.9864Z" fill="white"/>
<path d="M85.2604 138.029C84.4271 136.968 83.8905 135.706 83.7054 134.37C83.5203 133.034 83.6933 131.673 84.2068 130.425C84.7203 129.178 85.5559 128.09 86.628 127.272C87.7002 126.453 88.9704 125.934 90.3089 125.768C91.6473 125.602 93.0059 125.794 94.2457 126.325C95.4855 126.856 96.5621 127.707 97.3652 128.79C98.1684 129.874 98.6693 131.151 98.8168 132.492C98.9643 133.832 98.7531 135.188 98.2048 136.42L94.0426 131.128L89.9854 131.712L88.4608 135.522L92.623 140.809C91.2589 141.062 89.8517 140.936 88.5539 140.446C87.256 139.956 86.1171 139.12 85.2604 138.029Z" fill="white"/>
</g>
<path d="M89.0778 130.591C88.6628 130.917 88.1875 131.158 87.6792 131.301C87.1709 131.443 86.6395 131.485 86.1153 131.422C85.5911 131.359 85.0844 131.194 84.6242 130.935C84.1639 130.676 83.7592 130.329 83.433 129.914L51.3072 89.0735C50.9806 88.6588 50.739 88.1838 50.596 87.6756C50.453 87.1675 50.4116 86.6361 50.474 86.112C50.5364 85.5878 50.7014 85.081 50.9597 84.6206C51.218 84.1603 51.5644 83.7552 51.9792 83.4287C52.3939 83.1022 52.8689 82.8605 53.3771 82.7176C53.8852 82.5746 54.4166 82.5332 54.9408 82.5956C55.4649 82.658 55.9717 82.823 56.4321 83.0813C56.8925 83.3395 57.2975 83.686 57.624 84.1008L89.754 124.946C90.0803 125.361 90.3217 125.836 90.4643 126.344C90.6069 126.853 90.648 127.384 90.5852 127.908C90.5224 128.432 90.357 128.939 90.0983 129.399C89.8397 129.86 89.4929 130.264 89.0778 130.591Z" fill="#2EA3F2"/>
<path opacity="0.2" d="M89.0778 130.591C88.6628 130.917 88.1875 131.158 87.6792 131.301C87.1709 131.443 86.6395 131.485 86.1153 131.422C85.5911 131.359 85.0844 131.194 84.6242 130.935C84.1639 130.676 83.7592 130.329 83.433 129.914L51.3072 89.0735C50.9806 88.6588 50.739 88.1838 50.596 87.6756C50.453 87.1675 50.4116 86.6361 50.474 86.112C50.5364 85.5878 50.7014 85.081 50.9597 84.6206C51.218 84.1603 51.5644 83.7552 51.9792 83.4287C52.3939 83.1022 52.8689 82.8605 53.3771 82.7176C53.8852 82.5746 54.4166 82.5332 54.9408 82.5956C55.4649 82.658 55.9717 82.823 56.4321 83.0813C56.8925 83.3395 57.2975 83.686 57.624 84.1008L89.754 124.946C90.0803 125.361 90.3217 125.836 90.4643 126.344C90.6069 126.853 90.648 127.384 90.5852 127.908C90.5224 128.432 90.357 128.939 90.0983 129.399C89.8397 129.86 89.4929 130.264 89.0778 130.591Z" fill="white"/>
<path opacity="0.2" d="M87.1962 128.197C86.9833 128.365 86.7395 128.489 86.4786 128.562C86.2177 128.636 85.9449 128.657 85.6758 128.625C85.4066 128.593 85.1464 128.509 84.91 128.376C84.6736 128.243 84.4657 128.065 84.2982 127.852L53.5164 88.7209C53.1782 88.29 53.0246 87.7426 53.0891 87.1987C53.1537 86.6548 53.4311 86.1586 53.8608 85.8187C54.2926 85.4821 54.84 85.3299 55.3837 85.3952C55.9273 85.4605 56.4231 85.738 56.7629 86.1673L87.5448 125.299C87.8822 125.729 88.035 126.277 87.9697 126.82C87.9043 127.363 87.6261 127.858 87.1962 128.197Z" fill="black"/>
<path d="M54.1006 95.0505L56.3014 93.0723L57.3892 96.6549C57.3892 96.6549 55.1464 97.9149 54.3484 96.7893L54.1006 95.0505Z" fill="#E4897B"/>
<path d="M58.7161 92.9043L59.4805 95.9031L57.3889 96.6549L56.2969 93.0723L58.7161 92.9043Z" fill="#E4897B"/>
<path d="M41.4373 169.449L35.8765 167.479L36.5275 165.694L42.6721 167.769L41.4373 169.449Z" fill="#263238"/>
<path d="M38.8712 172.28C38.8705 172.265 38.8741 172.251 38.8815 172.238C38.889 172.226 38.9 172.215 38.9132 172.209C39.0476 172.146 40.2446 171.587 40.5932 171.789C40.6262 171.808 40.6534 171.835 40.6719 171.869C40.6904 171.902 40.6995 171.94 40.6982 171.978C40.7028 172.04 40.6923 172.103 40.6674 172.161C40.6426 172.219 40.6041 172.27 40.5554 172.31C40.2236 172.578 39.392 172.44 38.9258 172.331C38.9127 172.328 38.9006 172.323 38.8909 172.314C38.8812 172.305 38.8743 172.293 38.8712 172.28ZM39.161 172.247C39.7994 172.377 40.2824 172.364 40.4672 172.209C40.5002 172.184 40.5261 172.15 40.5423 172.112C40.5585 172.074 40.5645 172.032 40.5596 171.99C40.5607 171.976 40.5577 171.962 40.551 171.949C40.5443 171.937 40.5342 171.926 40.5218 171.919H40.4966C40.2782 171.822 39.6314 172.045 39.161 172.247Z" fill="#2EA3F2"/>
<path d="M38.9006 172.326C38.891 172.319 38.8833 172.309 38.8782 172.298C38.8731 172.287 38.8707 172.275 38.8712 172.263C38.9183 171.852 39.0931 171.466 39.371 171.159C39.4252 171.115 39.4878 171.083 39.555 171.064C39.6222 171.045 39.6924 171.04 39.7616 171.05C39.9506 171.079 40.001 171.176 40.0094 171.251C40.0514 171.583 39.3248 172.188 38.9678 172.335C38.96 172.339 38.9513 172.341 38.9426 172.341C38.9338 172.341 38.9251 172.339 38.9174 172.335L38.9006 172.326ZM39.7406 171.188C39.69 171.181 39.6386 171.185 39.5895 171.198C39.5404 171.212 39.4946 171.236 39.455 171.268C39.2269 171.511 39.0801 171.82 39.035 172.15C39.4004 171.948 39.875 171.47 39.875 171.268C39.8706 171.253 39.8626 171.239 39.8515 171.228C39.8405 171.217 39.8269 171.209 39.812 171.205C39.7891 171.196 39.765 171.19 39.7406 171.188Z" fill="#2EA3F2"/>
<path d="M38.6402 171.923L35.4482 171.822C35.3906 171.821 35.3342 171.839 35.2878 171.873C35.2415 171.907 35.2078 171.956 35.192 172.011L34.5074 174.578C34.4895 174.641 34.4869 174.708 34.4998 174.773C34.5127 174.838 34.5408 174.899 34.5817 174.951C34.6227 175.003 34.6753 175.045 34.7354 175.072C34.7955 175.1 34.8612 175.113 34.9274 175.111C36.0824 175.111 37.7456 175.111 39.1946 175.161C40.8746 175.216 41.9624 175.136 43.9448 175.203C45.1418 175.241 45.5282 174.044 45.0284 173.918C42.7646 173.347 41.282 173.452 39.3542 172.175C39.1454 172.024 38.8975 171.937 38.6402 171.923Z" fill="#263238"/>
<path d="M47.6574 105.651L51.7944 106.769L51.4248 108.285L47.04 107.231L47.6574 105.651Z" fill="#263238"/>
<path d="M52.2652 106.89L62.0302 109.524L61.8034 110.792L51.8452 108.39L52.2652 106.89Z" fill="#263238"/>
<path d="M63.4035 109.893L63.2649 111.141L62.1309 110.872L62.3871 109.62L63.4035 109.893Z" fill="#263238"/>
<path d="M56.2549 108.066L55.9945 109.292C55.9832 109.343 55.9922 109.396 56.0198 109.44C56.0473 109.484 56.091 109.516 56.1415 109.528L58.4431 110.069C58.469 110.075 58.4958 110.075 58.5219 110.07C58.5479 110.066 58.5728 110.056 58.5951 110.041C58.6173 110.027 58.6365 110.008 58.6515 109.986C58.6665 109.964 58.677 109.94 58.6825 109.914L58.9219 108.759C58.9322 108.71 58.9231 108.658 58.8966 108.615C58.87 108.572 58.828 108.541 58.7791 108.528L56.5027 107.915C56.4765 107.908 56.4492 107.906 56.4224 107.91C56.3956 107.914 56.3698 107.924 56.3467 107.938C56.3236 107.952 56.3035 107.97 56.2877 107.992C56.272 108.015 56.2608 108.04 56.2549 108.066Z" fill="white"/>
<path d="M67.452 92.753L67.389 92.5094L67.5696 92.3288L67.9896 92.4422C67.9711 92.3605 67.9313 92.2851 67.8741 92.2237C67.817 92.1623 67.7447 92.1172 67.6644 92.0929C67.5842 92.0686 67.499 92.0659 67.4174 92.0852C67.3358 92.1045 67.2608 92.1451 67.2 92.2028L67.1454 92.1776L66.0366 91.8626H65.9778C65.9554 91.7841 65.913 91.7127 65.8549 91.6553C65.7968 91.5979 65.7248 91.5565 65.646 91.535C65.5635 91.5125 65.4763 91.5131 65.394 91.5368C65.3118 91.5605 65.2377 91.6064 65.1798 91.6694L65.5788 91.7786L65.646 92.0222L65.4654 92.2028L65.0454 92.0894C65.062 92.172 65.1006 92.2485 65.1571 92.3109C65.2137 92.3733 65.2861 92.4192 65.3666 92.4438C65.4471 92.4683 65.5328 92.4706 65.6146 92.4504C65.6963 92.4301 65.771 92.3881 65.8308 92.3288C65.8482 92.3389 65.8664 92.3474 65.8854 92.354L66.9984 92.669H67.0572C67.0792 92.7499 67.1224 92.8235 67.1823 92.8821C67.2423 92.9406 67.3168 92.9822 67.3982 93.0023C67.4796 93.0224 67.5648 93.0204 67.6452 92.9966C67.7255 92.9727 67.798 92.9277 67.8552 92.8664L67.452 92.753Z" fill="#2EA3F2"/>
<path d="M113.278 173.653V174.913C113.278 174.989 113.308 175.061 113.362 175.115C113.416 175.169 113.488 175.199 113.564 175.199H149.327C149.632 175.198 149.932 175.123 150.201 174.979C150.47 174.836 150.7 174.629 150.87 174.376C151.04 174.123 151.146 173.832 151.178 173.529C151.21 173.226 151.167 172.919 151.053 172.637L139.713 144.572L121.401 144.698L122.027 148.34L126.067 171.91C126.096 172.088 126.085 172.271 126.037 172.445C125.989 172.619 125.903 172.781 125.787 172.919C125.671 173.057 125.526 173.169 125.363 173.246C125.2 173.323 125.022 173.365 124.841 173.367H113.564C113.526 173.367 113.489 173.374 113.454 173.388C113.419 173.402 113.387 173.423 113.361 173.45C113.334 173.476 113.313 173.508 113.299 173.543C113.285 173.578 113.278 173.615 113.278 173.653Z" fill="#2EA3F2"/>
<path opacity="0.6" d="M113.278 173.653V174.913C113.278 174.989 113.308 175.061 113.362 175.115C113.416 175.169 113.488 175.199 113.564 175.199H149.327C149.632 175.198 149.932 175.123 150.201 174.979C150.47 174.836 150.7 174.629 150.87 174.376C151.04 174.123 151.146 173.832 151.178 173.529C151.21 173.226 151.167 172.919 151.053 172.637L144.031 155.24L139.722 144.572L121.41 144.698L122.035 148.34L123.791 158.588L126.076 171.91C126.104 172.088 126.094 172.271 126.045 172.445C125.997 172.619 125.912 172.781 125.795 172.919C125.679 173.057 125.534 173.169 125.371 173.246C125.208 173.323 125.03 173.365 124.849 173.367H113.564C113.526 173.367 113.489 173.374 113.454 173.388C113.419 173.402 113.387 173.423 113.361 173.45C113.334 173.476 113.313 173.508 113.299 173.543C113.285 173.578 113.278 173.615 113.278 173.653Z" fill="white"/>
<path opacity="0.2" d="M124.849 173.372H148.113C148.245 173.367 148.375 173.331 148.491 173.266C148.606 173.201 148.705 173.11 148.779 173C148.853 172.89 148.899 172.764 148.915 172.632C148.931 172.5 148.915 172.367 148.869 172.242L138.932 148.344H122.035L126.076 171.915C126.104 172.093 126.093 172.275 126.045 172.45C125.997 172.624 125.912 172.785 125.795 172.923C125.679 173.062 125.534 173.173 125.371 173.251C125.208 173.328 125.03 173.369 124.849 173.372Z" fill="black"/>
<path opacity="0.1" d="M121.409 144.703L122.035 148.344L123.791 158.592L144.03 155.245L139.721 144.577L121.409 144.703Z" fill="black"/>
<path d="M85.8018 92.3999H170.583C170.868 92.3999 171.15 92.4561 171.413 92.5653C171.676 92.6745 171.916 92.8345 172.117 93.0361C172.318 93.2378 172.478 93.4772 172.586 93.7407C172.695 94.0041 172.751 94.2864 172.75 94.5713V151.948C172.75 152.523 172.522 153.074 172.116 153.481C171.709 153.889 171.158 154.118 170.583 154.119H85.8018C85.2259 154.119 84.6736 153.89 84.2664 153.483C83.8591 153.076 83.6304 152.523 83.6304 151.948V94.5545C83.6337 93.9812 83.8641 93.4325 84.2711 93.0287C84.678 92.6249 85.2284 92.3988 85.8018 92.3999Z" fill="#2EA3F2"/>
<path opacity="0.7" d="M85.8018 92.3999H170.583C170.868 92.3999 171.15 92.4561 171.413 92.5653C171.676 92.6745 171.916 92.8345 172.117 93.0361C172.318 93.2378 172.478 93.4772 172.586 93.7407C172.695 94.0041 172.751 94.2864 172.75 94.5713V151.948C172.75 152.523 172.522 153.074 172.116 153.481C171.709 153.889 171.158 154.118 170.583 154.119H85.8018C85.2259 154.119 84.6736 153.89 84.2664 153.483C83.8591 153.076 83.6304 152.523 83.6304 151.948V94.5545C83.6337 93.9812 83.8641 93.4325 84.2711 93.0287C84.678 92.6249 85.2284 92.3988 85.8018 92.3999Z" fill="white"/>
<path opacity="0.2" d="M168.785 154.115H170.583C171.158 154.115 171.709 153.887 172.115 153.48C172.522 153.074 172.75 152.522 172.75 151.948V94.5547C172.751 94.2697 172.695 93.9875 172.586 93.7241C172.478 93.4606 172.318 93.2212 172.117 93.0195C171.915 92.8179 171.676 92.6578 171.413 92.5487C171.15 92.4395 170.868 92.3833 170.583 92.3833H168.785C169.07 92.3833 169.352 92.4395 169.615 92.5487C169.879 92.6578 170.118 92.8179 170.319 93.0195C170.52 93.2212 170.68 93.4606 170.789 93.7241C170.897 93.9875 170.953 94.2697 170.952 94.5547V151.948C170.952 152.522 170.724 153.074 170.318 153.48C169.911 153.887 169.36 154.115 168.785 154.115Z" fill="black"/>
<path d="M168.995 94.5083H85.5835V149.852H168.995V94.5083Z" fill="#263238"/>
<path d="M168.995 94.5083H85.5835V98.7545H168.995V94.5083Z" fill="#2EA3F2"/>
<path opacity="0.2" d="M167.046 96.785C167.046 96.9901 166.986 97.1907 166.872 97.3613C166.758 97.5319 166.596 97.6649 166.406 97.7434C166.217 97.8219 166.008 97.8425 165.807 97.8024C165.605 97.7624 165.421 97.6636 165.276 97.5185C165.13 97.3734 165.032 97.1886 164.992 96.9873C164.952 96.7861 164.972 96.5775 165.051 96.388C165.129 96.1984 165.262 96.0364 165.433 95.9224C165.603 95.8084 165.804 95.7476 166.009 95.7476C166.284 95.7487 166.547 95.8583 166.741 96.0526C166.936 96.2469 167.045 96.5102 167.046 96.785Z" fill="black"/>
<path opacity="0.2" d="M163.619 96.7851C163.622 96.9908 163.563 97.1925 163.45 97.3648C163.338 97.537 163.177 97.672 162.988 97.7524C162.798 97.8329 162.589 97.8552 162.387 97.8166C162.185 97.778 161.999 97.6802 161.853 97.5357C161.706 97.3911 161.606 97.2063 161.565 97.0047C161.524 96.8031 161.544 96.5939 161.622 96.4036C161.7 96.2133 161.833 96.0506 162.004 95.936C162.175 95.8214 162.376 95.7603 162.582 95.7603C162.855 95.7602 163.117 95.8678 163.311 96.0596C163.505 96.2515 163.616 96.5121 163.619 96.7851Z" fill="black"/>
<path opacity="0.2" d="M160.196 96.7848C160.199 96.9914 160.139 97.194 160.026 97.3667C159.913 97.5393 159.75 97.6742 159.56 97.754C159.369 97.8338 159.159 97.8549 158.956 97.8146C158.754 97.7743 158.568 97.6744 158.422 97.5277C158.277 97.381 158.179 97.1942 158.14 96.9913C158.101 96.7883 158.124 96.5785 158.205 96.3886C158.287 96.1987 158.423 96.0374 158.597 95.9254C158.77 95.8134 158.973 95.7558 159.18 95.76C159.449 95.7665 159.705 95.8768 159.894 96.0678C160.084 96.2588 160.192 96.5158 160.196 96.7848Z" fill="black"/>
<path opacity="0.4" d="M168.995 98.7759H85.5835V113.144H168.995V98.7759Z" fill="white"/>
<path d="M87.4945 99.4141L85.5835 102.837V99.4141H87.4945Z" fill="#263238"/>
<path d="M97.7971 99.4141L90.4765 112.552H85.5835V110.943L92.0095 99.4141H97.7971Z" fill="#263238"/>
<path d="M100.75 112.606H94.9619L102.316 99.4097H108.1L100.75 112.606Z" fill="#263238"/>
<path d="M111.052 112.606H105.265L112.619 99.4097H118.406L111.052 112.606Z" fill="#263238"/>
<path d="M121.355 112.606H115.567L122.922 99.4097H128.709L121.355 112.606Z" fill="#263238"/>
<path d="M131.657 112.606H125.874L133.224 99.4097H139.012L131.657 112.606Z" fill="#263238"/>
<path d="M141.964 112.51H136.177L143.531 99.3135H149.314L141.964 112.51Z" fill="#263238"/>
<path d="M152.267 112.51H146.479L153.833 99.3135H159.621L152.267 112.51Z" fill="#263238"/>
<path d="M168.995 99.3677V100.98L162.569 112.509H156.782L164.107 99.3677H168.995Z" fill="#263238"/>
<path d="M168.996 109.183V112.552H167.118L168.996 109.183Z" fill="#263238"/>
<path opacity="0.4" d="M168.995 135.429H85.5835V149.797H168.995V135.429Z" fill="white"/>
<path d="M87.4945 136.185L85.5835 139.579V136.185H87.4945Z" fill="#263238"/>
<path d="M97.7971 136.185L90.4765 149.213H85.5835V147.617L92.0095 136.185H97.7971Z" fill="#263238"/>
<path d="M100.75 149.268H94.9619L102.316 136.185H108.1L100.75 149.268Z" fill="#263238"/>
<path d="M111.052 149.268H105.265L112.619 136.185H118.406L111.052 149.268Z" fill="#263238"/>
<path d="M121.355 149.268H115.567L122.922 136.185H128.709L121.355 149.268Z" fill="#263238"/>
<path d="M131.657 149.268H125.874L133.224 136.185H139.012L131.657 149.268Z" fill="#263238"/>
<path d="M141.964 149.171H136.177L143.531 136.088H149.314L141.964 149.171Z" fill="#263238"/>
<path d="M152.267 149.171H146.479L153.833 136.088H159.621L152.267 149.171Z" fill="#263238"/>
<path d="M168.995 136.139V137.735L162.569 149.167H156.782L164.107 136.139H168.995Z" fill="#263238"/>
<path d="M168.996 145.87V149.213H167.118L168.996 145.87Z" fill="#263238"/>
<path d="M113.471 126.42V127.617H107.717V119.944H113.32V121.137H109.145V123.132H112.85V124.32H109.145V126.42H113.471Z" fill="white"/>
<path d="M120.082 127.617L118.516 125.37C118.415 125.37 118.318 125.37 118.217 125.37H116.487V127.609H115.08V119.944H118.238C120.254 119.944 121.506 120.973 121.506 122.674C121.529 123.199 121.383 123.719 121.089 124.155C120.795 124.591 120.368 124.921 119.872 125.097L121.636 127.617H120.082ZM118.15 121.149H116.47V124.207H118.15C119.41 124.207 120.049 123.636 120.049 122.674C120.049 121.712 119.402 121.149 118.15 121.149Z" fill="white"/>
<path d="M128.1 127.617L126.533 125.37C126.433 125.37 126.336 125.37 126.235 125.37H124.505V127.609H123.06V119.944H126.214C128.234 119.944 129.482 120.973 129.482 122.674C129.505 123.199 129.359 123.719 129.064 124.155C128.77 124.591 128.344 124.921 127.848 125.097L129.612 127.617H128.1ZM126.172 121.149H124.492V124.207H126.172C127.432 124.207 128.066 123.636 128.066 122.674C128.066 121.712 127.411 121.149 126.164 121.149H126.172Z" fill="white"/>
<path d="M130.532 123.778C130.532 121.51 132.287 119.834 134.665 119.834C137.042 119.834 138.797 121.514 138.797 123.778C138.797 126.042 137.046 127.726 134.665 127.726C132.283 127.726 130.532 126.05 130.532 123.778ZM137.361 123.778C137.361 123.245 137.203 122.724 136.907 122.28C136.61 121.837 136.189 121.491 135.696 121.287C135.204 121.083 134.662 121.03 134.138 121.134C133.615 121.238 133.135 121.495 132.758 121.872C132.381 122.249 132.124 122.729 132.02 123.252C131.916 123.775 131.969 124.317 132.173 124.81C132.377 125.303 132.723 125.724 133.166 126.02C133.61 126.317 134.131 126.475 134.665 126.475C135.022 126.486 135.377 126.424 135.709 126.292C136.042 126.16 136.343 125.962 136.596 125.71C136.848 125.457 137.047 125.155 137.178 124.823C137.31 124.491 137.372 124.135 137.361 123.778Z" fill="white"/>
<path d="M145.32 127.617L143.753 125.37C143.652 125.37 143.556 125.37 143.459 125.37H141.725V127.609H140.301V119.944H143.459C145.475 119.944 146.723 120.973 146.723 122.674C146.746 123.199 146.599 123.719 146.305 124.155C146.011 124.591 145.585 124.921 145.089 125.097L146.857 127.617H145.32ZM143.392 121.149H141.712V124.207H143.392C144.652 124.207 145.286 123.636 145.286 122.674C145.286 121.712 144.648 121.149 143.4 121.149H143.392Z" fill="white"/>
<path opacity="0.4" d="M153.556 128.827H162.59C162.789 128.827 162.985 128.775 163.158 128.675C163.33 128.576 163.473 128.433 163.573 128.26C163.673 128.088 163.725 127.892 163.725 127.693C163.725 127.494 163.673 127.298 163.573 127.126L159.054 119.301C158.955 119.128 158.812 118.985 158.64 118.885C158.468 118.785 158.272 118.732 158.073 118.732C157.874 118.732 157.679 118.785 157.506 118.885C157.334 118.985 157.191 119.128 157.093 119.301L152.573 127.126C152.474 127.298 152.421 127.494 152.421 127.693C152.421 127.892 152.474 128.088 152.574 128.26C152.673 128.433 152.816 128.576 152.989 128.675C153.161 128.775 153.357 128.827 153.556 128.827ZM158.68 121.435L158.483 125.332H157.643L157.437 121.435H158.68ZM157.42 126.672C157.419 126.587 157.435 126.502 157.468 126.423C157.501 126.343 157.549 126.272 157.61 126.212C157.672 126.152 157.745 126.106 157.825 126.075C157.904 126.044 157.99 126.03 158.075 126.034C158.163 126.028 158.251 126.04 158.333 126.07C158.416 126.099 158.491 126.145 158.556 126.205C158.62 126.265 158.671 126.337 158.706 126.418C158.741 126.498 158.76 126.585 158.76 126.672C158.76 126.76 158.742 126.847 158.708 126.927C158.674 127.008 158.624 127.081 158.56 127.142C158.497 127.203 158.422 127.25 158.341 127.281C158.259 127.312 158.171 127.327 158.084 127.323C157.996 127.329 157.908 127.315 157.825 127.285C157.742 127.254 157.667 127.207 157.603 127.146C157.539 127.085 157.489 127.011 157.456 126.93C157.422 126.848 157.406 126.76 157.408 126.672H157.42Z" fill="white"/>
<path opacity="0.4" d="M91.9799 128.827H101.014C101.213 128.826 101.408 128.773 101.58 128.674C101.752 128.574 101.894 128.431 101.994 128.258C102.093 128.086 102.145 127.891 102.145 127.692C102.145 127.493 102.092 127.298 101.993 127.126L97.4777 119.301C97.3789 119.128 97.2361 118.985 97.0639 118.885C96.8917 118.785 96.6961 118.732 96.497 118.732C96.298 118.732 96.1024 118.785 95.9302 118.885C95.758 118.985 95.6152 119.128 95.5163 119.301L90.9971 127.126C90.8976 127.298 90.8452 127.494 90.8452 127.693C90.8452 127.892 90.8977 128.088 90.9973 128.26C91.0969 128.433 91.2402 128.576 91.4127 128.675C91.5852 128.775 91.7808 128.827 91.9799 128.827ZM97.1039 121.435L96.9023 125.332H96.0623L95.8565 121.435H97.1039ZM95.8439 126.672C95.8427 126.587 95.859 126.502 95.8917 126.423C95.9244 126.343 95.9729 126.272 96.0342 126.212C96.0955 126.152 96.1684 126.106 96.2483 126.075C96.3283 126.044 96.4136 126.03 96.4991 126.034C96.586 126.029 96.6728 126.042 96.7544 126.072C96.836 126.102 96.9107 126.149 96.9739 126.208C97.0371 126.268 97.0876 126.34 97.1222 126.42C97.1568 126.499 97.1749 126.585 97.1753 126.672C97.1754 126.76 97.1578 126.847 97.1235 126.927C97.0892 127.008 97.039 127.081 96.9758 127.142C96.9127 127.203 96.8379 127.25 96.756 127.281C96.6741 127.312 96.5867 127.327 96.4991 127.323C96.4128 127.326 96.327 127.31 96.2467 127.278C96.1665 127.247 96.0935 127.199 96.0322 127.138C95.971 127.077 95.9227 127.004 95.8904 126.924C95.858 126.844 95.8422 126.759 95.8439 126.672Z" fill="white"/>
<path opacity="0.1" d="M94.2773 94.5C105.811 106.054 135.437 131.767 168.995 129.868V94.5H94.2773Z" fill="white"/>
<path opacity="0.1" d="M85.5835 115.744V149.856H135.803C133.875 142.964 130.028 133.531 122.56 126.79C109.124 114.66 93.5341 114.694 85.5835 115.744Z" fill="white"/>
<path d="M157.08 172.62L158.575 173.275C158.265 173.577 157.875 173.785 157.451 173.873C157.027 173.962 156.586 173.928 156.181 173.775C155.717 173.566 155.345 173.194 155.134 172.731C154.923 172.267 154.888 171.743 155.035 171.255C155.127 170.913 155.316 170.605 155.581 170.369L151.515 159.982C150.053 160.041 149.436 158.672 149.47 157.731L150.956 158.391C151.04 158.435 151.133 158.462 151.227 158.469C151.322 158.476 151.417 158.464 151.507 158.433C151.597 158.401 151.679 158.351 151.749 158.287C151.818 158.222 151.874 158.143 151.912 158.056C151.95 157.969 151.969 157.875 151.969 157.78C151.968 157.685 151.948 157.591 151.91 157.504C151.871 157.417 151.815 157.339 151.745 157.275C151.675 157.21 151.592 157.161 151.502 157.131L150.007 156.475C150.317 156.173 150.707 155.965 151.131 155.877C151.555 155.788 151.996 155.822 152.401 155.976C152.868 156.179 153.247 156.543 153.468 157.001C153.689 157.46 153.738 157.983 153.607 158.475C153.537 158.805 153.367 159.106 153.119 159.336L157.185 169.726C158.323 169.789 159.205 171.058 159.172 171.999L157.655 171.36C157.485 171.287 157.292 171.283 157.119 171.351C156.946 171.419 156.807 171.552 156.731 171.721C156.661 171.887 156.659 172.074 156.724 172.241C156.789 172.409 156.917 172.545 157.08 172.62Z" fill="#2EA3F2"/>
<path opacity="0.2" d="M157.08 172.62L158.575 173.275C158.265 173.577 157.875 173.785 157.451 173.873C157.027 173.962 156.586 173.928 156.181 173.775C155.717 173.566 155.345 173.194 155.134 172.731C154.923 172.267 154.888 171.743 155.035 171.255C155.127 170.913 155.316 170.605 155.581 170.369L151.515 159.982C150.053 160.041 149.436 158.672 149.47 157.731L150.956 158.391C151.04 158.435 151.133 158.462 151.227 158.469C151.322 158.476 151.417 158.464 151.507 158.433C151.597 158.401 151.679 158.351 151.749 158.287C151.818 158.222 151.874 158.143 151.912 158.056C151.95 157.969 151.969 157.875 151.969 157.78C151.968 157.685 151.948 157.591 151.91 157.504C151.871 157.417 151.815 157.339 151.745 157.275C151.675 157.21 151.592 157.161 151.502 157.131L150.007 156.475C150.317 156.173 150.707 155.965 151.131 155.877C151.555 155.788 151.996 155.822 152.401 155.976C152.868 156.179 153.247 156.543 153.468 157.001C153.689 157.46 153.738 157.983 153.607 158.475C153.537 158.805 153.367 159.106 153.119 159.336L157.185 169.726C158.323 169.789 159.205 171.058 159.172 171.999L157.655 171.36C157.485 171.287 157.292 171.283 157.119 171.351C156.946 171.419 156.807 171.552 156.731 171.721C156.661 171.887 156.659 172.074 156.724 172.241C156.789 172.409 156.917 172.545 157.08 172.62Z" fill="white"/>
<path d="M145.484 163.439L143.9 163.834C143.961 163.404 144.143 163.002 144.425 162.673C144.707 162.344 145.077 162.102 145.492 161.977C145.988 161.859 146.51 161.926 146.961 162.165C147.412 162.404 147.76 162.798 147.941 163.275C148.077 163.603 148.113 163.964 148.046 164.312L157.605 170.062C158.726 169.121 160.049 169.831 160.6 170.596L159.02 170.982C158.932 171.003 158.848 171.042 158.774 171.096C158.701 171.15 158.638 171.218 158.591 171.296C158.545 171.374 158.514 171.461 158.501 171.551C158.488 171.642 158.493 171.734 158.516 171.822C158.562 171.999 158.676 172.152 158.833 172.245C158.991 172.339 159.179 172.366 159.356 172.322L160.944 171.927C160.884 172.356 160.702 172.759 160.42 173.088C160.138 173.417 159.767 173.658 159.352 173.783C158.856 173.907 158.332 173.848 157.876 173.616C157.42 173.385 157.063 172.997 156.87 172.523C156.725 172.219 156.676 171.878 156.727 171.545L147.172 165.791C146.227 166.438 144.757 165.971 144.211 165.203L145.807 164.783C145.985 164.736 146.137 164.623 146.233 164.466C146.328 164.309 146.359 164.122 146.32 163.943C146.275 163.766 146.162 163.613 146.005 163.519C145.849 163.424 145.661 163.396 145.484 163.439Z" fill="#2EA3F2"/>
<path opacity="0.2" d="M145.484 163.439L143.9 163.834C143.961 163.404 144.143 163.002 144.425 162.673C144.707 162.344 145.077 162.102 145.492 161.977C145.988 161.859 146.51 161.926 146.961 162.165C147.412 162.404 147.76 162.798 147.941 163.275C148.077 163.603 148.113 163.964 148.046 164.312L157.605 170.062C158.726 169.121 160.049 169.831 160.6 170.596L159.02 170.982C158.932 171.003 158.848 171.042 158.774 171.096C158.701 171.15 158.638 171.218 158.591 171.296C158.545 171.374 158.514 171.461 158.501 171.551C158.488 171.642 158.493 171.734 158.516 171.822C158.562 171.999 158.676 172.152 158.833 172.245C158.991 172.339 159.179 172.366 159.356 172.322L160.944 171.927C160.884 172.356 160.702 172.759 160.42 173.088C160.138 173.417 159.767 173.658 159.352 173.783C158.856 173.907 158.332 173.848 157.876 173.616C157.42 173.385 157.063 172.997 156.87 172.523C156.725 172.219 156.676 171.878 156.727 171.545L147.172 165.791C146.227 166.438 144.757 165.971 144.211 165.203L145.807 164.783C145.985 164.736 146.137 164.623 146.233 164.466C146.328 164.309 146.359 164.122 146.32 163.943C146.275 163.766 146.162 163.613 146.005 163.519C145.849 163.424 145.661 163.396 145.484 163.439Z" fill="white"/>
<path d="M177.614 158.659L177.639 158.592H162.868L159.403 167.744H174.111L174.103 167.769H175.317L178.433 159.609L177.614 158.659Z" fill="#263238"/>
<path opacity="0.2" d="M177.614 158.659L177.639 158.592H162.868L159.403 167.744H174.111L174.103 167.769H175.317L178.433 159.609L177.614 158.659Z" fill="white"/>
<path opacity="0.4" d="M177.639 158.592L174.174 167.744H159.403L162.868 158.592H177.639Z" fill="black"/>
<path d="M151.998 164.997L155.417 169.39L156.643 169.205L153.035 164.997H151.998Z" fill="#263238"/>
<path opacity="0.1" d="M151.998 164.997L155.417 169.39L156.643 169.205L153.035 164.997H151.998Z" fill="white"/>
<path d="M153.035 160.843L156.454 165.236L157.68 165.052L154.073 160.843H153.035Z" fill="#263238"/>
<path opacity="0.1" d="M153.035 160.843L156.454 165.236L157.68 165.052L154.073 160.843H153.035Z" fill="white"/>
<path d="M148.629 175.203H174.174V167.744H148.629V175.203Z" fill="#263238"/>
<path opacity="0.2" d="M148.629 175.203H174.174V167.744H148.629V175.203Z" fill="white"/>
<path d="M151.402 165.463H174.867V164.283H151.402V165.463Z" fill="#263238"/>
<path opacity="0.2" d="M151.402 165.463H174.867V164.283H151.402V165.463Z" fill="white"/>
<path opacity="0.2" d="M165.858 165.463H174.867V164.283H165.858V165.463Z" fill="black"/>
<path d="M152.788 161.994H176.253V160.814H152.788V161.994Z" fill="#263238"/>
<path opacity="0.2" d="M152.788 161.994H176.253V160.814H152.788V161.994Z" fill="white"/>
<path opacity="0.2" d="M167.244 161.994H176.253V160.814H167.244V161.994Z" fill="black"/>
<path opacity="0.2" d="M164.127 175.203H174.174V167.744H164.127V175.203Z" fill="black"/>
</svg>
