<svg width="210" height="211" viewBox="0 0 210 211" fill="none" xmlns="http://www.w3.org/2000/svg">
<path d="M210 161.108H0V161.213H210V161.108Z" fill="#E6E0E9"/>
<path d="M165.135 164.3H158.054V164.405H165.135V164.3Z" fill="#E6E0E9"/>
<path d="M188.395 164.25H169.68V164.355H188.395V164.25Z" fill="#E6E0E9"/>
<path d="M134.707 164.955H111.409V165.06H134.707V164.955Z" fill="#E6E0E9"/>
<path d="M108.99 164.955H100.288V165.06H108.99V164.955Z" fill="#E6E0E9"/>
<path d="M63.655 164.145H59.833V164.25H63.655V164.145Z" fill="#E6E0E9"/>
<path d="M72.3031 164.145H65.9863V164.25H72.3031V164.145Z" fill="#E6E0E9"/>
<path d="M56.0489 166.039H28.0938V166.144H56.0489V166.039Z" fill="#E6E0E9"/>
<path d="M99.5401 142.376H18.4423C17.807 142.375 17.1981 142.122 16.7493 141.672C16.3004 141.223 16.0483 140.613 16.0483 139.978V25.9773C16.0539 25.3456 16.3084 24.7416 16.7566 24.2965C17.2049 23.8515 17.8106 23.6012 18.4423 23.6001H99.5401C100.176 23.6001 100.786 23.8528 101.236 24.3025C101.686 24.7523 101.938 25.3623 101.938 25.9983V139.978C101.938 140.614 101.686 141.224 101.236 141.674C100.786 142.123 100.176 142.376 99.5401 142.376ZM18.4423 23.6841C17.8349 23.6852 17.2527 23.9273 16.8235 24.3572C16.3944 24.7872 16.1533 25.3698 16.1533 25.9773V139.978C16.1533 140.585 16.3944 141.168 16.8235 141.598C17.2527 142.028 17.8349 142.27 18.4423 142.271H99.5401C100.148 142.27 100.731 142.028 101.16 141.598C101.59 141.168 101.832 140.586 101.833 139.978V25.9773C101.832 25.3694 101.59 24.7868 101.16 24.357C100.731 23.9272 100.148 23.6852 99.5401 23.6841H18.4423Z" fill="#E6E0E9"/>
<path d="M190.39 142.376H109.288C108.653 142.375 108.043 142.122 107.594 141.672C107.144 141.223 106.891 140.614 106.89 139.978V25.9773C106.897 25.3452 107.152 24.7413 107.601 24.2963C108.05 23.8513 108.656 23.6012 109.288 23.6001H190.39C191.021 23.6023 191.626 23.853 192.073 24.298C192.521 24.743 192.775 25.3464 192.78 25.9773V139.978C192.78 140.612 192.529 141.221 192.081 141.671C191.633 142.12 191.025 142.374 190.39 142.376ZM109.288 23.6841C108.68 23.6852 108.098 23.9272 107.668 24.357C107.238 24.7868 106.996 25.3694 106.995 25.9773V139.978C106.996 140.586 107.238 141.168 107.668 141.598C108.098 142.028 108.68 142.27 109.288 142.271H190.39C190.998 142.27 191.581 142.028 192.011 141.598C192.44 141.168 192.682 140.586 192.684 139.978V25.9773C192.682 25.3694 192.44 24.7868 192.011 24.357C191.581 23.9272 190.998 23.6852 190.39 23.6841H109.288Z" fill="#E6E0E9"/>
<path d="M133.472 109.927H113.581V161.108H133.472V109.927Z" fill="#E6E0E9"/>
<path d="M129.692 161.108H133.472V150.36H125.731L129.692 161.108Z" fill="#FAFAFA"/>
<path d="M59.1319 109.927H39.2407V161.108H59.1319V109.927Z" fill="#E6E0E9"/>
<path d="M133.468 109.927H55.835V154.514H133.468V109.927Z" fill="#FAFAFA"/>
<path d="M95.9194 113.165V141.078H130.54V113.165H95.9194Z" fill="#E6E0E9"/>
<path d="M58.7666 113.169V141.083H93.3872V113.169H58.7666Z" fill="#E6E0E9"/>
<path d="M130.54 150.36V148.307H95.9194V150.36H130.54Z" fill="#E6E0E9"/>
<path d="M93.3872 150.36V148.307H58.7666V150.36H93.3872Z" fill="#E6E0E9"/>
<path d="M130.536 146.391V144.337H95.9155V146.391H130.536Z" fill="#E6E0E9"/>
<path d="M93.3828 146.396V144.342H58.7622V146.396H93.3828Z" fill="#E6E0E9"/>
<path d="M79.5019 116.173H72.6601C71.188 116.173 69.7313 115.873 68.3788 115.292C67.0263 114.71 65.8064 113.86 64.7935 112.792H87.3601C86.3484 113.859 85.1299 114.709 83.7789 115.291C82.4279 115.872 80.9726 116.172 79.5019 116.173Z" fill="#FAFAFA"/>
<path d="M117.004 116.173H110.158C108.685 116.173 107.229 115.874 105.876 115.292C104.524 114.711 103.304 113.86 102.291 112.792H124.87C123.858 113.86 122.638 114.711 121.285 115.292C119.933 115.874 118.476 116.173 117.004 116.173Z" fill="#FAFAFA"/>
<path d="M59.615 161.108H55.835V150.36H63.5756L59.615 161.108Z" fill="#FAFAFA"/>
<path d="M133.043 31.5757H28.707V91.1737H133.043V31.5757Z" fill="#E6E0E9"/>
<path d="M138.814 29.7363H25.1999C25.0585 29.7363 24.9228 29.7925 24.8227 29.8926C24.7227 29.9926 24.6665 30.1283 24.6665 30.2697C24.666 30.3401 24.6794 30.4099 24.7059 30.4751C24.7325 30.5403 24.7717 30.5996 24.8213 30.6496C24.8708 30.6996 24.9298 30.7393 24.9948 30.7663C25.0598 30.7934 25.1295 30.8073 25.1999 30.8073H138.814C138.885 30.8073 138.954 30.7934 139.019 30.7663C139.084 30.7393 139.143 30.6996 139.193 30.6496C139.242 30.5996 139.282 30.5403 139.308 30.4751C139.335 30.4099 139.348 30.3401 139.348 30.2697C139.348 30.1283 139.291 29.9926 139.191 29.8926C139.091 29.7925 138.956 29.7363 138.814 29.7363Z" fill="#E6E0E9"/>
<path d="M135.328 31.5757H29.7739V91.1737H135.328V31.5757Z" fill="#E6E0E9"/>
<path d="M133.043 91.1738H28.707V95.42H133.043V91.1738Z" fill="#E6E0E9"/>
<path d="M139.133 91.1738H33.5791V95.42H139.133V91.1738Z" fill="#E6E0E9"/>
<path d="M132.124 87.9736V34.7764L32.9699 34.7764V87.9736H132.124Z" fill="#F5F5F5"/>
<path d="M82.043 87.9736L100.821 34.7764H109.683L90.905 87.9736H82.043Z" fill="#FAFAFA"/>
<path d="M92.8115 87.9736L111.59 34.7764H115.042L96.2681 87.9736H92.8115Z" fill="#FAFAFA"/>
<path d="M132.124 87.9736V34.7764H131.716V87.9736H132.124Z" fill="#E6E0E9"/>
<path d="M33.0077 28.7788H27.5015V80.1112H33.0077V28.7788Z" fill="#E6E0E9"/>
<path d="M35.1539 28.7788H30.8657V80.1112H35.1539V28.7788Z" fill="#E6E0E9"/>
<path d="M38.514 28.7788H33.0078V80.1112H38.514V28.7788Z" fill="#E6E0E9"/>
<path d="M40.6603 28.7788H36.3721V80.1112H40.6603V28.7788Z" fill="#E6E0E9"/>
<path d="M44.0204 28.7788H38.5142V80.1112H44.0204V28.7788Z" fill="#E6E0E9"/>
<path d="M130.074 28.7788H126.903V80.1112H130.074V28.7788Z" fill="#E6E0E9"/>
<path d="M131.317 28.7788H128.843V80.1112H131.317V28.7788Z" fill="#E6E0E9"/>
<path d="M133.249 28.7788H130.078V80.1112H133.249V28.7788Z" fill="#E6E0E9"/>
<path d="M134.488 28.7788H132.015V80.1112H134.488V28.7788Z" fill="#E6E0E9"/>
<path d="M136.42 28.7788H133.249V80.1112H136.42V28.7788Z" fill="#E6E0E9"/>
<path d="M165.282 51.0469H158.243V70.2535H165.282V51.0469Z" fill="#E6E0E9"/>
<path d="M155.568 73.4585L153.938 77.8979H155.568L165.535 73.4585H155.568Z" fill="#FAFAFA"/>
<path d="M153.938 73.4585V77.8979L163.909 73.4585H153.938Z" fill="#E6E0E9"/>
<path d="M172.616 73.4585L170.986 77.8979H172.616L182.583 73.4585H172.616Z" fill="#FAFAFA"/>
<path d="M170.986 73.4585V77.8979L180.957 73.4585H170.986Z" fill="#E6E0E9"/>
<path d="M146.626 73.6641H157.466V70.2831H146.626V73.6641Z" fill="#E6E0E9"/>
<path d="M188.395 70.2832H157.462V73.6642H188.395V70.2832Z" fill="#FAFAFA"/>
<path d="M177.009 70.2536H159.877L157.756 46.9814H174.888L177.009 70.2536Z" fill="#E6E0E9"/>
<path d="M177.895 70.2536H160.763L158.646 46.9814H175.778L177.895 70.2536Z" fill="#FAFAFA"/>
<path d="M163.107 67.6791L161.457 49.5562H173.435L175.086 67.6791H163.107Z" fill="#FAFAFA"/>
<path d="M66.1124 102.455C66.1124 102.455 58.7246 89.7249 68.9726 79.5903C68.9726 79.5903 71.648 81.3333 71.606 83.6769C71.564 86.0205 68.7416 86.6169 69.3506 88.5657C69.9596 90.5145 72.6224 92.4423 70.871 94.0593C69.1196 95.6763 71.1524 97.1127 71.0348 99.0993C70.9172 101.086 66.1124 102.455 66.1124 102.455Z" fill="#E6E0E9"/>
<path d="M66.6709 103.619C66.6709 103.619 69.6655 89.2085 56.7463 82.8203C56.7463 82.8203 54.7597 85.3193 55.5367 87.5285C56.3137 89.7377 59.1781 89.4143 59.2201 91.4597C59.2621 93.5051 57.3385 96.1679 59.5057 97.1507C61.6729 98.1335 60.2029 100.141 60.9421 101.981C61.6813 103.82 66.6709 103.619 66.6709 103.619Z" fill="#E6E0E9"/>
<path d="M55.356 100.426C55.356 100.426 55.5996 109.927 65.016 109.927C74.4324 109.927 74.676 100.426 74.676 100.426H55.356Z" fill="#FAFAFA"/>
<path d="M166.467 161.108H167.429L170.167 147.601L170.65 145.236L173.636 130.536H185.098L191.31 161.108H192.272L185.942 129.952C185.92 129.846 185.862 129.751 185.778 129.683C185.694 129.615 185.588 129.578 185.48 129.579H173.254C173.146 129.578 173.041 129.614 172.958 129.683C172.874 129.751 172.817 129.846 172.796 129.952L170.171 142.88L169.68 145.245L166.467 161.108Z" fill="#E6E0E9"/>
<path d="M148.067 161.108H149.029L155.24 130.519H166.702L169.68 145.245L170.159 147.601L172.901 161.108H173.88L170.659 145.236L170.171 142.88L167.546 129.952C167.524 129.846 167.466 129.751 167.382 129.683C167.298 129.615 167.193 129.578 167.084 129.579H154.858C154.75 129.578 154.645 129.615 154.561 129.683C154.477 129.751 154.419 129.846 154.396 129.952L148.067 161.108Z" fill="#E6E0E9"/>
<path d="M176.32 130.049H155.261C153.329 130.049 151.473 129.291 150.093 127.938C148.713 126.585 147.917 124.745 147.878 122.813L147.092 90.8003C147.082 90.0882 147.213 89.381 147.478 88.7198C147.742 88.0587 148.136 87.4567 148.635 86.9487C149.135 86.4408 149.73 86.0371 150.386 85.761C151.043 85.4849 151.748 85.3419 152.46 85.3403H165.661C166.982 85.3401 168.258 85.8263 169.244 86.7063C170.23 87.5863 170.858 88.7984 171.007 90.1115L176.32 130.049Z" fill="#E6E0E9"/>
<path d="M164.833 126.013H185.442C186.208 126.013 186.942 126.317 187.483 126.858C188.024 127.399 188.328 128.133 188.328 128.898V128.999C188.328 129.277 188.217 129.544 188.02 129.741C187.823 129.938 187.556 130.049 187.278 130.049H164.833V126.013Z" fill="#E6E0E9"/>
<path d="M105 180.075C149.975 180.075 186.434 177.947 186.434 175.321C186.434 172.695 149.975 170.566 105 170.566C60.0256 170.566 23.5664 172.695 23.5664 175.321C23.5664 177.947 60.0256 180.075 105 180.075Z" fill="#F5F5F5"/>
<path d="M133.619 71.8074C132.615 69.0481 131.081 66.5114 129.104 64.3398H95.7098C93.733 66.5114 92.1993 69.0481 91.1948 71.8074L95.8148 94.8066C99.3492 98.6381 104.101 101.128 109.263 101.853C114.425 102.578 119.679 101.494 124.132 98.7841C128.585 96.0747 131.963 91.9071 133.691 86.9895C135.42 82.0718 135.393 76.7074 133.615 71.8074H133.619Z" fill="#2EA3F2"/>
<path opacity="0.1" d="M133.619 71.8074C132.615 69.0481 131.081 66.5114 129.104 64.3398H95.7098C93.733 66.5114 92.1993 69.0481 91.1948 71.8074L95.8148 94.8066C99.3492 98.6381 104.101 101.128 109.263 101.853C114.425 102.578 119.679 101.494 124.132 98.7841C128.585 96.0747 131.963 91.9071 133.691 86.9895C135.42 82.0718 135.393 76.7074 133.615 71.8074H133.619Z" fill="#FAFAFA"/>
<path d="M134.951 80.5562C134.712 85.8594 132.605 90.9073 129.003 94.8068H95.8234C93.0223 91.7631 91.1103 88.009 90.2957 83.9536C89.481 79.8981 89.795 75.6969 91.2034 71.8076H133.623C134.642 74.6068 135.093 77.5808 134.951 80.5562Z" fill="#2EA3F2"/>
<path opacity="0.9" d="M134.951 80.5562C134.712 85.8594 132.605 90.9073 129.003 94.8068H95.8234C93.0223 91.7631 91.1103 88.009 90.2957 83.9536C89.481 79.8981 89.795 75.6969 91.2034 71.8076H133.623C134.642 74.6068 135.093 77.5808 134.951 80.5562Z" fill="#FAFAFA"/>
<path opacity="0.3" d="M134.95 80.5563C134.689 86.1369 132.362 91.4212 128.423 95.3822C124.483 99.3432 119.211 101.698 113.632 101.989C108.053 102.28 102.564 100.487 98.2338 96.9573C93.9031 93.4278 91.0393 88.4143 90.1987 82.8911C89.3582 77.368 90.601 71.7295 93.6857 67.0716C96.7703 62.4136 101.477 59.0687 106.89 57.6869C112.303 56.3051 118.036 56.9851 122.976 59.5948C127.916 62.2044 131.709 66.5574 133.619 71.8077C134.638 74.6069 135.09 77.5807 134.95 80.5563Z" fill="white"/>
<path opacity="0.4" d="M125.127 60.8793L92.6775 90.4725C92.5151 90.1729 92.3555 89.8705 92.1987 89.5653C91.2066 87.5791 90.5171 85.4556 90.1533 83.2653L118.18 57.7041C120.66 58.3577 123.01 59.4316 125.127 60.8793Z" fill="white"/>
<path opacity="0.4" d="M133.808 72.3495L103.32 100.17C100.158 98.775 97.3585 96.6712 95.1387 94.0215L128.453 63.6387C130.881 66.0945 132.713 69.0745 133.808 72.3495Z" fill="white"/>
<path d="M134.942 66.5029C132.368 62.0402 128.528 58.4411 123.909 56.1611C119.289 53.8812 114.097 53.0228 108.989 53.6945C103.881 54.3663 99.0873 56.538 95.2141 59.935C91.3409 63.3319 88.5624 67.8014 87.2301 72.7779C85.8978 77.7544 86.0715 83.0142 87.7294 87.8919C89.3872 92.7697 92.4547 97.046 96.5436 100.18C100.632 103.314 105.559 105.164 110.7 105.498C115.841 105.831 120.965 104.632 125.425 102.052C131.397 98.5964 135.754 92.9118 137.538 86.2465C139.323 79.5812 138.389 72.4802 134.942 66.5029ZM94.6217 89.7878C92.5911 86.2708 91.6489 82.2307 91.9143 78.1782C92.1797 74.1258 93.6408 70.2431 96.1128 67.021C98.5849 63.799 101.957 61.3823 105.802 60.0766C109.648 58.7709 113.794 58.6348 117.717 59.6856C121.64 60.7363 125.163 62.9267 127.841 65.9798C130.519 69.0328 132.231 72.8114 132.762 76.8377C133.293 80.864 132.617 84.9572 130.822 88.5997C129.026 92.2423 126.19 95.2705 122.674 97.3015C120.339 98.6501 117.761 99.5255 115.088 99.8778C112.414 100.23 109.698 100.052 107.093 99.3545C104.489 98.6567 102.047 97.4527 99.908 95.8113C97.7689 94.1698 95.974 92.123 94.626 89.7878H94.6217Z" fill="#2EA3F2"/>
<path opacity="0.1" d="M134.942 66.5029C132.368 62.0402 128.528 58.4411 123.909 56.1611C119.289 53.8812 114.097 53.0228 108.989 53.6945C103.881 54.3663 99.0873 56.538 95.2141 59.935C91.3409 63.3319 88.5624 67.8014 87.2301 72.7779C85.8978 77.7544 86.0715 83.0142 87.7294 87.8919C89.3872 92.7697 92.4547 97.046 96.5436 100.18C100.632 103.314 105.559 105.164 110.7 105.498C115.841 105.831 120.965 104.632 125.425 102.052C131.397 98.5964 135.754 92.9118 137.538 86.2465C139.323 79.5812 138.389 72.4802 134.942 66.5029ZM94.6217 89.7878C92.5911 86.2708 91.6489 82.2307 91.9143 78.1782C92.1797 74.1258 93.6408 70.2431 96.1128 67.021C98.5849 63.799 101.957 61.3823 105.802 60.0766C109.648 58.7709 113.794 58.6348 117.717 59.6856C121.64 60.7363 125.163 62.9267 127.841 65.9798C130.519 69.0328 132.231 72.8114 132.762 76.8377C133.293 80.864 132.617 84.9572 130.822 88.5997C129.026 92.2423 126.19 95.2705 122.674 97.3015C120.339 98.6501 117.761 99.5255 115.088 99.8778C112.414 100.23 109.698 100.052 107.093 99.3545C104.489 98.6567 102.047 97.4527 99.908 95.8113C97.7689 94.1698 95.974 92.123 94.626 89.7878H94.6217Z" fill="black"/>
<path d="M52.5252 106.294L55.7424 107.042L53.0754 109.032C53.0754 109.032 51.1644 108.167 51.0762 106.811L52.5252 106.294Z" fill="#E4897B"/>
<path d="M57.4647 109.183L55.1463 110.729L53.0757 109.032L55.7427 107.045L57.4647 109.183Z" fill="#E4897B"/>
<path d="M93.8576 93.2276C90.4388 95.7476 86.9318 98.1416 83.408 100.481C79.8842 102.82 76.3142 105.101 72.7274 107.34C69.1406 109.578 65.5202 111.771 61.8872 113.9C60.0728 114.984 58.2416 116.034 56.4272 117.1C55.5259 117.674 54.5432 118.109 53.5124 118.39C52.9624 118.536 52.3999 118.63 51.8324 118.671C51.2023 118.723 50.5681 118.69 49.9466 118.575C49.5024 118.487 49.0799 118.312 48.7032 118.061C48.3266 117.809 48.0032 117.486 47.7516 117.11C47.5 116.733 47.3251 116.311 47.2369 115.867C47.1487 115.423 47.1489 114.966 47.2376 114.522C47.2663 114.379 47.3056 114.239 47.3552 114.102C47.5579 113.506 47.8405 112.941 48.1952 112.422C48.5116 111.955 48.8716 111.519 49.2704 111.12C50.03 110.368 50.8978 109.733 51.845 109.238C53.6804 108.192 55.5032 107.138 57.3512 106.101C61.0304 104.022 64.7432 101.997 68.4644 99.998C72.1856 97.9988 75.953 96.0626 79.7414 94.1726C83.5298 92.2826 87.3476 90.443 91.2452 88.7462C91.8334 88.4861 92.4969 88.4526 93.1084 88.6519C93.7198 88.8513 94.236 89.2695 94.5579 89.8263C94.8798 90.383 94.9846 91.0391 94.8523 91.6684C94.7199 92.2978 94.3597 92.8561 93.8408 93.236L93.8576 93.2276Z" fill="#2EA3F2"/>
<path opacity="0.1" d="M93.8576 93.2276C90.4388 95.7476 86.9318 98.1416 83.408 100.481C79.8842 102.82 76.3142 105.101 72.7274 107.34C69.1406 109.578 65.5202 111.771 61.8872 113.9C60.0728 114.984 58.2416 116.034 56.4272 117.1C55.5259 117.674 54.5432 118.109 53.5124 118.39C52.9624 118.536 52.3999 118.63 51.8324 118.671C51.2023 118.723 50.5681 118.69 49.9466 118.575C49.5024 118.487 49.0799 118.312 48.7032 118.061C48.3266 117.809 48.0032 117.486 47.7516 117.11C47.5 116.733 47.3251 116.311 47.2369 115.867C47.1487 115.423 47.1489 114.966 47.2376 114.522C47.2663 114.379 47.3056 114.239 47.3552 114.102C47.5579 113.506 47.8405 112.941 48.1952 112.422C48.5116 111.955 48.8716 111.519 49.2704 111.12C50.03 110.368 50.8978 109.733 51.845 109.238C53.6804 108.192 55.5032 107.138 57.3512 106.101C61.0304 104.022 64.7432 101.997 68.4644 99.998C72.1856 97.9988 75.953 96.0626 79.7414 94.1726C83.5298 92.2826 87.3476 90.443 91.2452 88.7462C91.8334 88.4861 92.4969 88.4526 93.1084 88.6519C93.7198 88.8513 94.236 89.2695 94.5579 89.8263C94.8798 90.383 94.9846 91.0391 94.8523 91.6684C94.7199 92.2978 94.3597 92.8561 93.8408 93.236L93.8576 93.2276Z" fill="black"/>
<path d="M57.1872 86.3985C56.9772 86.7387 56.7378 87.1503 56.511 87.5367C56.2842 87.9231 56.0616 88.3263 55.8516 88.7337C55.4316 89.5359 55.0116 90.3507 54.5916 91.1781C54.1716 92.0055 53.8314 92.8581 53.487 93.6981C53.319 94.1181 53.1426 94.5381 52.9872 94.9581L52.752 95.6007C52.7058 95.7225 52.6974 95.7729 52.668 95.8611C52.6386 95.9493 52.626 96.0333 52.6008 96.1173C52.4369 96.9473 52.3539 97.7912 52.353 98.6373C52.332 99.5403 52.353 100.46 52.4034 101.388C52.4538 102.316 52.5042 103.249 52.5882 104.181C52.6722 105.114 52.7562 106.063 52.8444 106.987L51.2232 107.319C50.9376 106.382 50.715 105.45 50.4924 104.505C50.2698 103.56 50.1018 102.61 49.938 101.644C49.7742 100.678 49.665 99.7083 49.5936 98.7045C49.5063 97.6533 49.533 96.5957 49.6734 95.5503C49.6986 95.4033 49.7196 95.2647 49.7574 95.1303C49.7952 94.9959 49.833 94.8069 49.8666 94.7103L50.0724 93.9963C50.2068 93.5217 50.3622 93.0513 50.5218 92.5851C50.8452 91.6485 51.198 90.7287 51.5928 89.8215C51.9876 88.9143 52.4076 88.0281 52.8528 87.1545C53.0838 86.7345 53.3274 86.2851 53.5752 85.8525C53.823 85.4199 54.0708 85.0125 54.3816 84.5547L57.1872 86.3985Z" fill="#E4897B"/>
<path d="M55.3942 173.12C55.1107 173.111 54.8291 173.071 54.5542 173.002C54.5394 173 54.5259 172.993 54.5153 172.982C54.5048 172.972 54.4978 172.958 54.4954 172.943C54.4927 172.928 54.4944 172.913 54.5004 172.899C54.5064 172.884 54.5163 172.872 54.529 172.864C54.6424 172.788 55.6336 172.15 56.0158 172.322C56.0582 172.341 56.0947 172.372 56.1213 172.41C56.1479 172.449 56.1637 172.494 56.167 172.54C56.1867 172.615 56.1854 172.694 56.1631 172.768C56.1409 172.842 56.0986 172.909 56.041 172.96C55.8517 173.09 55.622 173.147 55.3942 173.12ZM54.7516 172.893C55.3228 173.006 55.7512 172.985 55.915 172.834C55.951 172.8 55.9773 172.756 55.9913 172.708C56.0053 172.66 56.0065 172.61 55.9948 172.561C55.9942 172.54 55.9876 172.519 55.9757 172.501C55.9639 172.483 55.9471 172.469 55.9276 172.46C55.7302 172.372 55.1548 172.649 54.7516 172.893Z" fill="#2EA3F2"/>
<path d="M54.5498 173.007C54.5375 173.01 54.5244 173.01 54.512 173.007C54.5 173 54.49 172.99 54.4833 172.978C54.4766 172.967 54.4734 172.953 54.4742 172.939C54.4742 172.902 54.4742 171.961 54.8312 171.646C54.8753 171.606 54.9273 171.576 54.9838 171.558C55.0403 171.54 55.0999 171.534 55.1588 171.541C55.2208 171.542 55.2805 171.564 55.3279 171.604C55.3754 171.643 55.4076 171.698 55.4192 171.759C55.4948 172.125 54.8984 172.83 54.5792 173.019C54.5686 173.017 54.5585 173.013 54.5498 173.007ZM55.1084 171.679C55.0448 171.68 54.9835 171.704 54.9362 171.747C54.7297 172.051 54.624 172.412 54.6338 172.78C54.9446 172.528 55.3142 171.999 55.268 171.776C55.268 171.738 55.2386 171.696 55.142 171.684L55.1084 171.679Z" fill="#2EA3F2"/>
<path d="M70.2703 173.12C69.9242 173.115 69.5796 173.075 69.2413 173.002C69.2252 173.001 69.2102 172.993 69.1987 172.982C69.1873 172.971 69.1801 172.956 69.1783 172.939C69.1764 172.923 69.1794 172.907 69.1869 172.893C69.1944 172.879 69.206 172.867 69.2203 172.86C69.3673 172.784 70.6693 172.12 71.0683 172.339C71.1066 172.358 71.1392 172.388 71.1628 172.424C71.1864 172.46 71.2001 172.502 71.2027 172.545C71.2118 172.614 71.2036 172.684 71.1786 172.75C71.1537 172.815 71.1129 172.873 71.0599 172.918C70.8276 173.074 70.5488 173.145 70.2703 173.12ZM69.4975 172.893C70.2241 173.015 70.7575 172.981 70.9591 172.805C70.9926 172.774 71.018 172.735 71.0334 172.692C71.0487 172.649 71.0535 172.603 71.0473 172.557C71.0471 172.54 71.0424 172.523 71.0335 172.508C71.0246 172.494 71.012 172.481 70.9969 172.473C70.7785 172.356 70.0309 172.637 69.4975 172.893Z" fill="#2EA3F2"/>
<path d="M69.2538 173.006C69.2472 173.009 69.24 173.011 69.2328 173.011C69.2256 173.011 69.2185 173.009 69.2118 173.006C69.1997 173 69.1899 172.99 69.1839 172.978C69.1778 172.966 69.1759 172.952 69.1782 172.939C69.1782 172.901 69.258 172.019 69.6654 171.679C69.7825 171.581 69.9332 171.533 70.0854 171.545C70.2996 171.566 70.3584 171.675 70.3752 171.763C70.434 172.133 69.6654 172.838 69.2748 173.023L69.2538 173.006ZM70.035 171.679C69.9363 171.68 69.8412 171.716 69.7662 171.78C69.5253 172.064 69.3786 172.417 69.3462 172.788C69.741 172.549 70.266 171.994 70.2282 171.772C70.2282 171.772 70.2282 171.696 70.077 171.683L70.035 171.679Z" fill="#2EA3F2"/>
<path d="M62.1602 73.7856C62.4164 75.747 63.0002 79.7244 61.5806 80.9256C61.5806 80.9256 62.0006 82.9248 65.579 83.1558C69.5354 83.412 67.595 81.3162 67.595 81.3162C65.4698 80.661 65.6294 79.0608 66.104 77.5824L62.1602 73.7856Z" fill="#E4897B"/>
<path d="M69.4976 69.8C69.4724 69.7994 69.4477 69.7922 69.4262 69.779C69.4079 69.7697 69.3917 69.7569 69.3785 69.7411C69.3654 69.7254 69.3555 69.7072 69.3496 69.6875C69.3437 69.6679 69.3419 69.6473 69.3442 69.6269C69.3466 69.6065 69.353 69.5868 69.3632 69.569C69.4723 69.3468 69.6336 69.1544 69.8333 69.0081C70.033 68.8618 70.2651 68.766 70.5098 68.729C70.5474 68.7305 70.5832 68.7455 70.6105 68.7713C70.6379 68.7971 70.6549 68.832 70.6585 68.8695C70.6621 68.9069 70.652 68.9444 70.6301 68.9749C70.6081 69.0055 70.5758 69.027 70.5392 69.0356C70.3477 69.0691 70.1665 69.1464 70.0099 69.2615C69.8532 69.3766 69.7253 69.5264 69.6362 69.6992C69.6243 69.7269 69.6051 69.7509 69.5807 69.7686C69.5564 69.7863 69.5276 69.7972 69.4976 69.8Z" fill="#263238"/>
<path d="M70.6274 71.522C70.9168 72.0988 71.2843 72.633 71.7194 73.1096C71.5947 73.2181 71.4477 73.298 71.2888 73.3437C71.1299 73.3894 70.963 73.3998 70.7996 73.3742L70.6274 71.522Z" fill="#DE5753"/>
<path d="M70.3501 71.0934C70.3753 71.358 70.5349 71.5554 70.7029 71.5386C70.8709 71.5218 70.9969 71.2992 70.9717 71.0346C70.9465 70.77 70.7869 70.5726 70.6147 70.5894C70.4425 70.6062 70.3249 70.833 70.3501 71.0934Z" fill="#263238"/>
<path d="M70.5601 70.6105L71.1733 70.3711C71.1733 70.3711 70.8793 70.8919 70.5601 70.6105Z" fill="#263238"/>
<path d="M65.6587 172.927H68.9305L69.1489 165.358H65.8771L65.6587 172.927Z" fill="#E4897B"/>
<path d="M50.8032 172.927H54.075L55.125 165.358H51.8574L50.8032 172.927Z" fill="#E4897B"/>
<path d="M54.2767 172.549H50.6017C50.5387 172.548 50.4776 172.57 50.4297 172.611C50.3818 172.652 50.3504 172.709 50.3413 172.771L49.9213 175.678C49.913 175.751 49.9203 175.825 49.9427 175.896C49.9651 175.966 50.0021 176.031 50.0512 176.086C50.1004 176.141 50.1606 176.185 50.2279 176.216C50.2953 176.246 50.3682 176.262 50.4421 176.262C51.7021 176.241 52.3405 176.165 53.9575 176.165C54.9487 176.165 56.4019 176.266 57.7753 176.266C59.1487 176.266 59.2201 174.909 58.6489 174.787C56.0869 174.237 55.6837 173.477 54.8185 172.75C54.6674 172.621 54.4754 172.55 54.2767 172.549Z" fill="#263238"/>
<path d="M69.0396 172.549H65.3688C65.3055 172.547 65.244 172.569 65.1959 172.61C65.1478 172.651 65.1166 172.709 65.1084 172.772L64.6884 175.678C64.6807 175.751 64.6886 175.826 64.7115 175.896C64.7344 175.967 64.7718 176.031 64.8213 176.086C64.8707 176.141 64.9312 176.185 64.9987 176.216C65.0663 176.246 65.1394 176.262 65.2134 176.262C66.4734 176.241 67.1118 176.165 68.7246 176.165C69.72 176.165 71.7738 176.266 73.1472 176.266C74.5206 176.266 74.592 174.909 74.0208 174.788C71.4588 174.237 70.4508 173.477 69.5856 172.751C69.4334 172.62 69.2398 172.549 69.0396 172.549Z" fill="#263238"/>
<path d="M69.1447 165.358L69.0355 169.26H65.7637L65.8771 165.358H69.1447Z" fill="#CE6F64"/>
<path d="M51.8533 165.358H55.1251L54.5833 169.26H51.3115L51.8533 165.358Z" fill="#CE6F64"/>
<path d="M58.5816 86.9022C57.9607 87.8723 57.2415 88.7759 56.4354 89.5986L56.0616 89.3508L51.9204 86.5998C51.9204 86.5998 54.18 81.5598 55.881 81.3036C57.5064 81.0432 58.6908 82.7232 59.241 84.5208C59.451 85.1718 59.1024 86.0538 58.5816 86.9022Z" fill="#2EA3F2"/>
<path opacity="0.6" d="M58.5816 86.9022C57.9607 87.8723 57.2415 88.7759 56.4354 89.5986L56.0616 89.3508L51.9204 86.5998C51.9204 86.5998 54.18 81.5598 55.881 81.3036C57.5064 81.0432 58.6908 82.7232 59.241 84.5208C59.451 85.1718 59.1024 86.0538 58.5816 86.9022Z" fill="#FAFAFA"/>
<path d="M58.582 86.9021C57.9611 87.8722 57.2419 88.7758 56.4358 89.5985L56.062 89.3507C56.2468 87.8387 56.8348 86.3393 57.5068 85.8647C57.9184 85.9067 58.2838 86.3435 58.582 86.9021Z" fill="#2EA3F2"/>
<path opacity="0.4" d="M58.582 86.9021C57.9611 87.8722 57.2419 88.7758 56.4358 89.5985L56.062 89.3507C56.2468 87.8387 56.8348 86.3393 57.5068 85.8647C57.9184 85.9067 58.2838 86.3435 58.582 86.9021Z" fill="#FAFAFA"/>
<path d="M72.7486 89.4183C72.5511 90.6783 72.2949 92.1608 71.9505 93.9206C71.5305 96.1718 70.9425 98.8724 70.1991 102.102L56.9481 101.262C57.5193 95.882 57.7419 92.5556 55.8813 81.3206C57.7625 81.0579 59.6604 80.9329 61.5597 80.9468C63.5713 80.9337 65.5812 81.0642 67.5741 81.3374C70.1445 81.7574 73.0341 82.5302 73.0341 82.5302C73.0341 82.5302 73.7733 82.8201 72.7486 89.4183Z" fill="#2EA3F2"/>
<path opacity="0.6" d="M72.7486 89.4183C72.5511 90.6783 72.2949 92.1608 71.9505 93.9206C71.5305 96.1718 70.9425 98.8724 70.1991 102.102L56.9481 101.262C57.5193 95.882 57.7419 92.5556 55.8813 81.3206C57.7625 81.0579 59.6604 80.9329 61.5597 80.9468C63.5713 80.9337 65.5812 81.0642 67.5741 81.3374C70.1445 81.7574 73.0341 82.5302 73.0341 82.5302C73.0341 82.5302 73.7733 82.8201 72.7486 89.4183Z" fill="#FAFAFA"/>
<path d="M72.7483 89.4183C72.5509 90.6783 72.2947 92.1609 71.9503 93.9207C71.2215 92.3706 70.6163 90.7655 70.1401 89.1201H72.6013L72.7483 89.4183Z" fill="#2EA3F2"/>
<path opacity="0.4" d="M72.7483 89.4183C72.5509 90.6783 72.2947 92.1609 71.9503 93.9207C71.2215 92.3706 70.6163 90.7655 70.1401 89.1201H72.6013L72.7483 89.4183Z" fill="#FAFAFA"/>
<path d="M61.4379 71.0264C61.9377 74.231 62.0847 75.6002 63.8697 77.0996C66.5535 79.3592 70.3797 78.0404 70.8459 74.7476C71.2659 71.7866 70.3755 67.0406 67.0953 66.0578C66.3738 65.8364 65.6076 65.8034 64.8697 65.9618C64.1318 66.1202 63.4467 66.4649 62.8797 66.9629C62.3126 67.4609 61.8824 68.0958 61.6301 68.8071C61.3777 69.5183 61.3116 70.2824 61.4379 71.0264Z" fill="#E4897B"/>
<path d="M66.6962 101.875C66.6962 101.875 66.4862 107.709 65.9822 115.067C65.5622 121.241 64.928 128.482 64.0418 134.253L64.0166 134.413C62.4248 144.627 55.373 168.5 55.373 168.5H50.9126C50.9126 168.5 54.5876 145.442 55.394 135.32C57.4394 109.754 52.3154 106.861 56.948 101.224L66.6962 101.875Z" fill="#2EA3F2"/>
<path opacity="0.3" d="M66.6962 101.875C66.6962 101.875 66.4862 107.709 65.9822 115.067C65.5622 121.241 64.928 128.482 64.0418 134.253L64.0166 134.413C62.4248 144.627 55.373 168.5 55.373 168.5H50.9126C50.9126 168.5 54.5876 145.442 55.394 135.32C57.4394 109.754 52.3154 106.861 56.948 101.224L66.6962 101.875Z" fill="black"/>
<path d="M65.9822 115.068C65.5622 121.242 64.928 128.483 64.0418 134.253C62.534 126.756 60.056 115.807 63.3824 108.633C64.1762 110.67 65.1002 112.972 65.9822 115.068Z" fill="#2EA3F2"/>
<path opacity="0.4" d="M65.9822 115.068C65.5622 121.242 64.928 128.483 64.0418 134.253C62.534 126.756 60.056 115.807 63.3824 108.633C64.1762 110.67 65.1002 112.972 65.9822 115.068Z" fill="black"/>
<path d="M70.1989 102.106C70.1989 102.106 73.9789 124.509 73.7521 134.48C73.5295 144.854 69.7285 168.5 69.7285 168.5H65.3101C65.3101 168.5 66.0073 145.455 65.6167 135.27C65.1967 124.165 60.4927 101.472 60.4927 101.472L70.1989 102.106Z" fill="#2EA3F2"/>
<path opacity="0.3" d="M70.1989 102.106C70.1989 102.106 73.9789 124.509 73.7521 134.48C73.5295 144.854 69.7285 168.5 69.7285 168.5H65.3101C65.3101 168.5 66.0073 145.455 65.6167 135.27C65.1967 124.165 60.4927 101.472 60.4927 101.472L70.1989 102.106Z" fill="black"/>
<path d="M64.5542 168.71H70.4804L70.9424 166.723L64.3442 166.769L64.5542 168.71Z" fill="#263238"/>
<path d="M50.2656 168.71H56.1918L56.6538 166.723L50.3076 166.769L50.2656 168.71Z" fill="#263238"/>
<path d="M56.797 100.46L56.125 101.611C56.0704 101.699 56.1754 101.8 56.3266 101.808L70.2244 102.711C70.342 102.711 70.447 102.669 70.4596 102.593L70.657 101.413C70.657 101.333 70.5688 101.258 70.4386 101.249L56.9986 100.376C56.9609 100.374 56.9232 100.381 56.8884 100.395C56.8535 100.41 56.8223 100.432 56.797 100.46Z" fill="#263238"/>
<path d="M58.5018 102.073L58.1448 102.047C58.0734 102.047 58.0188 102.001 58.0272 101.959L58.296 100.426C58.296 100.384 58.3674 100.351 58.4388 100.355L58.8 100.376C58.8714 100.376 58.9218 100.422 58.9176 100.468L58.6488 101.997C58.6404 102.043 58.5732 102.077 58.5018 102.073Z" fill="#2EA3F2"/>
<path opacity="0.3" d="M58.5018 102.073L58.1448 102.047C58.0734 102.047 58.0188 102.001 58.0272 101.959L58.296 100.426C58.296 100.384 58.3674 100.351 58.4388 100.355L58.8 100.376C58.8714 100.376 58.9218 100.422 58.9176 100.468L58.6488 101.997C58.6404 102.043 58.5732 102.077 58.5018 102.073Z" fill="black"/>
<path d="M67.2001 102.635L66.8431 102.614C66.7717 102.614 66.7171 102.568 66.7255 102.522L66.9943 100.993C66.9943 100.947 67.0657 100.918 67.1413 100.922L67.4983 100.943C67.5697 100.943 67.6243 100.989 67.6159 101.035L67.3471 102.564C67.3513 102.61 67.2841 102.64 67.2001 102.635Z" fill="#2EA3F2"/>
<path opacity="0.3" d="M67.2001 102.635L66.8431 102.614C66.7717 102.614 66.7171 102.568 66.7255 102.522L66.9943 100.993C66.9943 100.947 67.0657 100.918 67.1413 100.922L67.4983 100.943C67.5697 100.943 67.6243 100.989 67.6159 101.035L67.3471 102.564C67.3513 102.61 67.2841 102.64 67.2001 102.635Z" fill="black"/>
<path d="M73.7859 85.8901C74.2899 87.5701 74.7687 89.2711 75.2349 90.9679L76.6419 96.0457L76.8183 96.6757L76.8645 96.8311L76.8855 96.9109V96.9529C76.9005 97.0085 76.9187 97.0632 76.9401 97.1167C77.0432 97.372 77.1848 97.61 77.3601 97.8223C77.8615 98.3516 78.4425 98.7994 79.0821 99.1495C80.5472 99.9425 82.097 100.568 83.7021 101.014L83.4585 102.652C81.5751 102.555 79.7199 102.154 77.9649 101.464C76.9938 101.083 76.0989 100.531 75.3231 99.8341C74.8786 99.4222 74.5091 98.9361 74.2311 98.3977C74.156 98.2522 74.09 98.1021 74.0337 97.9483L73.9875 97.8349L73.9581 97.7551L73.9035 97.5997L73.6809 96.9655C73.0929 95.2855 72.5469 93.6055 72.0303 91.9003C71.5137 90.1951 71.0055 88.5151 70.5435 86.8015L73.7859 85.8901Z" fill="#E4897B"/>
<path d="M73.0339 82.5136C74.7139 83.0638 76.4779 88.5574 76.4779 88.5574L70.4131 91.1698C70.4131 91.1698 67.8931 85.0042 69.0103 83.6098C70.1275 82.2154 71.1061 81.8836 73.0339 82.5136Z" fill="#2EA3F2"/>
<path opacity="0.6" d="M73.0339 82.5136C74.7139 83.0638 76.4779 88.5574 76.4779 88.5574L70.4131 91.1698C70.4131 91.1698 67.8931 85.0042 69.0103 83.6098C70.1275 82.2154 71.1061 81.8836 73.0339 82.5136Z" fill="#FAFAFA"/>
<path d="M69.7916 65.873C68.7206 64.55 60.4466 63.605 60.0056 67.2086C57.0656 69.2666 59.8544 74.5838 60.2744 75.9362C58.2458 76.499 51.7106 78.7334 56.4944 83.0762C61.2782 87.419 68.4518 86.6798 69.8546 82.1858C70.8374 79.0442 67.7168 73.7858 67.784 71.9462C67.8512 70.1066 71.627 68.12 69.7916 65.873Z" fill="#263238"/>
<path d="M60.8539 76.5997C60.8385 76.6002 60.8233 76.5971 60.8094 76.5905C60.7955 76.5839 60.7834 76.5741 60.7741 76.5619C60.0139 75.6379 57.3679 70.7827 58.2961 68.4727C58.44 68.1143 58.6841 67.805 58.9991 67.5815C59.3141 67.3581 59.6868 67.2301 60.0727 67.2127C60.0862 67.211 60.1 67.212 60.1132 67.2158C60.1263 67.2195 60.1386 67.2259 60.1492 67.2346C60.1598 67.2432 60.1686 67.2539 60.1749 67.2661C60.1812 67.2782 60.185 67.2915 60.1861 67.3051C60.1897 67.3324 60.1825 67.36 60.166 67.3819C60.1495 67.4039 60.125 67.4186 60.0979 67.4227C59.7509 67.4356 59.415 67.5476 59.1299 67.7457C58.8447 67.9437 58.6224 68.2193 58.4893 68.5399C57.5947 70.7743 60.1903 75.5161 60.9337 76.4233C60.9469 76.4381 60.9555 76.4565 60.9584 76.4762C60.9612 76.4959 60.9582 76.516 60.9497 76.5339C60.9411 76.5519 60.9275 76.5669 60.9104 76.5771C60.8934 76.5873 60.8737 76.5923 60.8539 76.5913V76.5997Z" fill="#263238"/>
<path d="M67.1288 71.7485C67.2225 72.3619 67.5181 72.9265 67.9688 73.3529C68.5652 73.9241 69.128 73.5335 69.1826 72.8069C69.233 72.1559 68.981 71.0765 68.2754 70.7741C67.5698 70.4717 67.0406 71.0219 67.1288 71.7485Z" fill="#E4897B"/>
<path d="M81.6439 100.561L84.0295 99.75L83.6557 102.619C83.6557 102.619 82.7149 103.039 81.4969 101.98L80.3335 101.237L81.2491 100.737C81.3746 100.665 81.5069 100.606 81.6439 100.561Z" fill="#E4897B"/>
<path d="M85.697 99.7417L84.9662 102.249L83.6558 102.615L84.0296 99.7501L85.697 99.7417Z" fill="#E4897B"/>
</svg>
