<svg width="19" height="17" viewBox="0 0 19 17" fill="none" xmlns="http://www.w3.org/2000/svg">
<path d="M9.33942 6.12507V9.29173M9.33942 12.4584H9.34734M7.94608 2.13269L1.27866 13.2635C1.14129 13.5016 1.06862 13.7714 1.06788 14.0463C1.06714 14.3211 1.13835 14.5914 1.27444 14.8302C1.41052 15.069 1.60675 15.268 1.84359 15.4075C2.08044 15.5469 2.34966 15.6219 2.62449 15.6251H15.9601C16.235 15.6219 16.5042 15.5469 16.741 15.4075C16.9779 15.268 17.1741 15.069 17.3102 14.8302C17.4463 14.5914 17.5175 14.3211 17.5167 14.0463C17.516 13.7714 17.4433 13.5016 17.306 13.2635L10.6377 2.13269C10.4973 1.90152 10.2997 1.71041 10.064 1.57778C9.8283 1.44516 9.56238 1.37549 9.29191 1.37549C9.02144 1.37549 8.75552 1.44516 8.5198 1.57778C8.28407 1.71041 8.08649 1.90152 7.94608 2.13269Z" stroke="#FFB400" stroke-width="1.3" stroke-linecap="round" stroke-linejoin="round"/>
</svg>
