<svg width="16" height="17" viewBox="0 0 16 17" fill="none" xmlns="http://www.w3.org/2000/svg">
<path d="M2 7.16683H14M4.66667 10.5002H4.67333M7.33333 10.5002H8.66667M2 5.8335C2 5.30306 2.21071 4.79436 2.58579 4.41928C2.96086 4.04421 3.46957 3.8335 4 3.8335H12C12.5304 3.8335 13.0391 4.04421 13.4142 4.41928C13.7893 4.79436 14 5.30306 14 5.8335V11.1668C14 11.6973 13.7893 12.206 13.4142 12.581C13.0391 12.9561 12.5304 13.1668 12 13.1668H4C3.46957 13.1668 2.96086 12.9561 2.58579 12.581C2.21071 12.206 2 11.6973 2 11.1668V5.8335Z" stroke="#2EA3F2" stroke-linecap="round" stroke-linejoin="round"/>
</svg>
