<svg width="21" height="20" viewBox="0 0 21 20" fill="none" xmlns="http://www.w3.org/2000/svg">
<path fill-rule="evenodd" clip-rule="evenodd" d="M20.2853 3.0067C20.14 2.79981 19.799 2.68852 19.5454 2.68709C16.9612 2.66426 14.3771 2.66569 11.7929 2.68138C11.3879 2.68424 11.1429 2.5972 10.9496 2.10494C10.5877 1.18462 9.88715 0.720894 9.01674 0.743724C8.17588 0.766553 7.50245 1.22743 7.15897 2.13347C6.98415 2.59434 6.7527 2.68852 6.36243 2.68424C5.0687 2.66959 3.77564 2.67182 2.48227 2.67405H2.48226C2.01191 2.67486 1.54151 2.67567 1.07103 2.67567C1.02537 2.67567 0.977701 2.67179 0.929836 2.66789C0.806051 2.65781 0.680962 2.64762 0.585964 2.70421C0.424686 2.79981 0.200621 3.01384 0.208008 3.16223C0.219088 3.36341 0.391446 3.61882 0.555186 3.72441C0.680184 3.80403 0.851032 3.79623 1.01615 3.78869C1.06407 3.7865 1.11151 3.78433 1.15721 3.78433L2.03947 3.786C3.50927 3.78897 4.97851 3.79194 6.44861 3.78005C6.79455 3.7772 6.98661 3.87993 7.14296 4.27945C7.50368 5.20262 8.1648 5.6906 9.04629 5.69345C9.9524 5.69488 10.6234 5.19548 10.9964 4.24663C11.1429 3.8728 11.3251 3.78005 11.6514 3.78433C12.6017 3.79777 13.552 3.79549 14.5024 3.79321C14.8644 3.79234 15.2265 3.79147 15.5885 3.79147V3.78719C15.975 3.78719 16.3616 3.78789 16.7482 3.78858H16.7484C17.7152 3.79033 18.6823 3.79208 19.6488 3.78291C20.1979 3.7772 20.5327 3.36341 20.2828 3.00813L20.2853 3.0067ZM9.05737 4.5691C8.3901 4.56339 7.89272 3.97981 7.89888 3.20789C7.90503 2.44453 8.42703 1.83954 9.07214 1.8481C9.70002 1.85666 10.2577 2.51159 10.2479 3.22644C10.2368 3.98267 9.71356 4.57338 9.0586 4.56767L9.05737 4.5691ZM19.8854 16.0545C19.7648 15.9851 19.6078 15.9969 19.4522 16.0086L19.4522 16.0086C19.3934 16.013 19.3348 16.0174 19.2784 16.0174C18.1028 16.0169 16.9271 16.0168 15.7513 16.0166C13.3993 16.0163 11.0472 16.016 8.69564 16.0131C8.66329 16.0131 8.63115 16.0141 8.59937 16.015C8.36256 16.0221 8.14529 16.0286 8.00744 15.6336C7.66888 14.6719 7.0053 14.1382 6.09919 14.1168C5.16845 14.0954 4.51965 14.6276 4.07521 15.5722C3.97672 15.7805 3.69479 15.9846 3.48919 15.9946C2.89424 16.0272 2.29752 16.0228 1.70108 16.0185H1.70098C1.43597 16.0166 1.17101 16.0146 0.906281 16.016C0.562796 16.0174 0.195919 16.0616 0.190994 16.5753C0.18607 17.0961 0.544329 17.1332 0.895201 17.1303C1.20498 17.1288 1.51476 17.1299 1.82454 17.131C2.35562 17.133 2.8867 17.1349 3.41779 17.1232C3.75881 17.1161 3.96564 17.1974 4.1183 17.614C4.46425 18.5515 5.13891 19.0423 6.00685 19.0609C6.90435 19.0808 7.60732 18.5886 7.96558 17.6312C8.13671 17.1731 8.36816 17.1232 8.72026 17.1246C10.0238 17.1329 11.3273 17.1314 12.6309 17.13C13.1322 17.1295 13.6335 17.1289 14.1348 17.1289H18.3182C18.459 17.1289 18.6003 17.1321 18.7417 17.1354L18.7418 17.1354C19.1145 17.1439 19.4875 17.1525 19.8534 17.1018C19.9776 17.0851 20.088 16.9386 20.1984 16.7921C20.2487 16.7252 20.2991 16.6584 20.3508 16.6038C20.304 16.5457 20.2599 16.4815 20.2158 16.4174L20.2158 16.4174C20.1159 16.2721 20.016 16.1269 19.8854 16.0516V16.0545ZM6.05733 17.9522C5.42084 17.9608 4.87175 17.3415 4.86313 16.6067C4.85452 15.859 5.37405 15.2469 6.02655 15.2355C6.69382 15.2241 7.19859 15.7934 7.2072 16.5696C7.21582 17.3287 6.70367 17.9422 6.05733 17.9508V17.9522ZM19.2518 9.31765C19.4042 9.31943 19.5566 9.32121 19.7091 9.32121V9.31693C20.0526 9.31693 20.3518 9.42965 20.3419 9.89337C20.3333 10.3571 20.0243 10.447 19.6857 10.4427C19.5934 10.4422 19.501 10.4434 19.4087 10.4447C19.2548 10.4468 19.1009 10.449 18.947 10.4427C18.2564 10.4127 17.7381 10.4384 17.2739 11.3473C16.4651 12.9311 14.4079 12.6415 13.7049 10.9535C13.5301 10.534 13.3405 10.4341 12.9699 10.4356C9.93927 10.4467 6.90938 10.4457 3.87908 10.4447C3.01328 10.4444 2.14745 10.4441 1.28155 10.4441C1.22592 10.4441 1.16794 10.4498 1.10994 10.4555C0.975404 10.4688 0.840739 10.482 0.734927 10.4242C0.588124 10.3431 0.464339 10.208 0.340202 10.0725C0.287362 10.0148 0.234457 9.95704 0.179688 9.90336C0.235013 9.8471 0.288889 9.78772 0.342787 9.72832C0.474791 9.58283 0.606923 9.43721 0.760781 9.3369C0.848321 9.28021 0.969964 9.29354 1.09109 9.30682C1.14372 9.31259 1.19625 9.31835 1.24585 9.31835H7.02846C7.4966 9.31835 7.96467 9.31804 8.4327 9.31772C9.95373 9.31669 11.4744 9.31567 12.9958 9.32549C13.3306 9.32834 13.5338 9.27412 13.6913 8.85035C14.0484 7.88865 14.7366 7.40923 15.6427 7.41922C16.5242 7.42778 17.1877 7.90863 17.5349 8.84321C17.6901 9.25985 17.8944 9.34118 18.233 9.32549C18.5721 9.30973 18.9118 9.31369 19.2518 9.31765ZM14.4423 9.90621C14.4522 10.6453 14.984 11.2532 15.6193 11.2532H15.6205C16.2521 11.2517 16.7852 10.6353 16.7901 9.89765C16.795 9.16425 16.2607 8.52075 15.6414 8.51218C14.9754 8.50362 14.4325 9.13429 14.4423 9.90621Z" fill="url(#paint0_linear_143_974)"/>
<defs>
<linearGradient id="paint0_linear_143_974" x1="32.6205" y1="9.90218" x2="12.512" y2="9.90218" gradientUnits="userSpaceOnUse">
<stop stop-color="#DAA628"/>
<stop offset="1" stop-color="#FFD15D"/>
</linearGradient>
</defs>
</svg>
