<svg width="19" height="18" viewBox="0 0 19 18" fill="none" xmlns="http://www.w3.org/2000/svg">
<path d="M14.0631 7.2329C14.5595 6.73653 14.5595 5.9376 14.5595 4.33975C14.5595 2.7419 14.5595 1.94297 14.0631 1.44659M14.0631 7.2329C13.5667 7.7293 12.7678 7.7293 11.17 7.7293H7.78042C6.18257 7.7293 5.38364 7.7293 4.88726 7.2329M14.0631 1.44659C13.5667 0.950195 12.7678 0.950195 11.17 0.950195H7.78042C6.18257 0.950195 5.38364 0.950195 4.88726 1.44659M4.88726 1.44659C4.39087 1.94297 4.39087 2.7419 4.39087 4.33975C4.39087 5.9376 4.39087 6.73653 4.88726 7.2329" stroke="#2E3271"/>
<path d="M10.3208 4.34055C10.3208 4.80855 9.94138 5.18794 9.47336 5.18794C9.00535 5.18794 8.62598 4.80855 8.62598 4.34055C8.62598 3.87256 9.00535 3.49316 9.47336 3.49316C9.94138 3.49316 10.3208 3.87256 10.3208 4.34055Z" stroke="#2E3271"/>
<path d="M14.5573 3.49236C13.1533 3.49236 12.0151 2.35419 12.0151 0.950195" stroke="#2E3271" stroke-linecap="round"/>
<path d="M14.5573 5.18701C13.1533 5.18701 12.0151 6.32518 12.0151 7.72918" stroke="#2E3271" stroke-linecap="round"/>
<path d="M4.39087 3.49236C5.79486 3.49236 6.93303 2.35419 6.93303 0.950195" stroke="#2E3271" stroke-linecap="round"/>
<path d="M4.39087 5.18701C5.79486 5.18701 6.93303 6.32518 6.93303 7.72918" stroke="#2E3271" stroke-linecap="round"/>
<path d="M3.5376 15.6845H5.45264C6.30923 15.6845 7.17504 15.7737 8.00867 15.9455C9.48338 16.2493 11.036 16.286 12.5258 16.0449C13.2604 15.926 13.9825 15.7442 14.6363 15.4286C15.2264 15.1438 15.9492 14.7423 16.4348 14.2926C16.9196 13.8436 17.4246 13.1087 17.783 12.5341C18.0903 12.0415 17.9417 11.4372 17.4555 11.0701C16.9156 10.6624 16.1143 10.6625 15.5744 11.0704L14.043 12.2271C13.4495 12.6755 12.8012 13.0882 12.0289 13.2114C11.9361 13.2262 11.8388 13.2397 11.7373 13.2514M11.7373 13.2514C11.7067 13.255 11.6757 13.2584 11.6444 13.2616M11.7373 13.2514C11.8608 13.225 11.9834 13.1487 12.0986 13.0483C12.6436 12.5726 12.678 11.7709 12.2051 11.2397C12.0955 11.1165 11.967 11.0137 11.8243 10.9285C9.45381 9.51463 5.76574 10.5915 3.5376 12.1716M11.7373 13.2514C11.7063 13.2581 11.6753 13.2616 11.6444 13.2616M11.6444 13.2616C11.2009 13.3071 10.6821 13.3189 10.1064 13.2645" stroke="#2E3271" stroke-linecap="round"/>
<path d="M3.54216 11.5421C3.54216 10.8401 2.97308 10.271 2.27108 10.271C1.56908 10.271 1 10.8401 1 11.5421V15.779C1 16.481 1.56908 17.0501 2.27108 17.0501C2.97308 17.0501 3.54216 16.481 3.54216 15.779V11.5421Z" stroke="#2E3271"/>
</svg>
